<svg width="200" height="200" viewBox="0 0 203 234" fill="none" xmlns="http://www.w3.org/2000/svg">
    <style>
       .rotate {
      animation: rotate 5s linear infinite;
      transform-origin: center;
    }
    @keyframes rotate {
      from { transform: rotate(0deg); }
      to { transform: rotate(360deg); }
    }
    
    </style>
    <g class="rotate" transform-origin="50% 50%">
        <path d="M33.6265 58.1701C32.568 59.2519 31.4218 60.0802 30.188 60.655C28.954 61.2036 27.6911 61.5045 26.3995 61.5577C25.0946 61.5981 23.8261 61.3769 22.5939 60.8944C21.3616 60.4118 20.231 59.667 19.2018 58.6601C18.1727 57.6532 17.4035 56.5391 16.8942 55.3176C16.3849 54.0962 16.1428 52.8392 16.1678 51.5467C16.1926 50.2281 16.4788 48.9458 17.0265 47.6998C17.561 46.4409 18.3576 45.2705 19.4161 44.1886C20.565 43.0144 21.7891 42.1461 23.0882 41.5837C24.4003 41.0081 25.742 40.7586 27.1134 40.835L27.1088 44.0069C26.0386 44.0185 25.0684 44.2184 24.198 44.6064C23.3274 44.9683 22.5242 45.5253 21.7884 46.2773C21.0784 47.003 20.5388 47.7921 20.1695 48.6445C19.8003 49.497 19.6139 50.3605 19.6104 51.2351C19.6069 52.1097 19.7793 52.9628 20.1278 53.7944C20.4891 54.6127 21.026 55.3705 21.7385 56.0676C22.4378 56.7518 23.2004 57.2656 24.0265 57.609C24.8655 57.9392 25.7287 58.0995 26.6162 58.0898C27.4905 58.0672 28.3433 57.8687 29.1746 57.4941C30.0059 57.1196 30.783 56.5629 31.5059 55.8241C32.1772 55.138 32.7171 54.375 33.1257 53.5352C33.5339 52.6693 33.7648 51.6943 33.8182 50.6103L37.1708 51.0241C37.0413 52.3178 36.6571 53.5946 36.0182 54.8546C35.379 56.0886 34.5818 57.1937 33.6265 58.1701ZM34.4526 53.1291L29.2675 48.0559L31.6493 45.6216L37.1708 51.0241L34.4526 53.1291Z" fill="black"/>
        <path d="M44.5236 33.3588L52.9084 28.6117L54.368 31.1898L45.9832 35.9369L44.5236 33.3588ZM48.8569 40.4507L58.3741 35.0624L59.861 37.6887L47.2116 44.8503L37.6628 27.9843L49.9749 21.0137L51.4618 23.64L42.2819 28.8373L48.8569 40.4507Z" fill="black"/>
        <path d="M71.8087 32.5384L67.5359 16.7713L61.3359 18.4515L60.5393 15.5119L76.4133 11.2101L77.2099 14.1497L71.01 15.8299L75.2828 31.597L71.8087 32.5384Z" fill="black"/>
        <path d="M102.951 27.1006L105.63 7.90518L113.527 9.00746C115.227 9.24476 116.643 9.72183 117.773 10.4387C118.921 11.1581 119.753 12.0756 120.268 13.1912C120.783 14.3068 120.942 15.5684 120.746 16.9761C120.55 18.3838 120.051 19.5535 119.25 20.4854C118.449 21.4173 117.398 22.072 116.096 22.4495C114.813 22.8295 113.321 22.9009 111.621 22.6636L105.698 21.8369L107.522 20.3861L106.515 27.5981L102.951 27.1006ZM107.468 20.7701L106.119 18.8205L111.878 19.6242C113.45 19.8437 114.675 19.6792 115.553 19.1308C116.452 18.5666 116.985 17.6813 117.154 16.4747C117.325 15.2499 117.054 14.2522 116.341 13.4818C115.647 12.714 114.514 12.2204 112.942 12.0009L107.183 11.1972L109.019 9.66415L107.468 20.7701Z" fill="black"/>
        <path d="M125.575 29.7371L141.477 15.6365L144.71 17.0898L144.742 38.3546L141.308 36.8105L141.628 17.7991L142.941 18.3895L128.959 31.2585L125.575 29.7371ZM131.076 27.2924L133.118 25.114L142.664 29.4057L142.389 32.3789L131.076 27.2924Z" fill="black"/>
        <path d="M152.496 43.0482L164.181 27.5855L167.053 29.7557L155.367 45.2184L152.496 43.0482Z" fill="black"/>
        <path d="M163.788 50.8613L178.68 38.4569L184.103 44.9669C185.449 46.5837 186.319 48.2619 186.711 50.0014C187.102 51.741 187.029 53.4119 186.49 55.0141C185.95 56.6163 184.929 58.0436 183.426 59.2958C181.937 60.5363 180.348 61.2827 178.661 61.5352C176.987 61.7759 175.331 61.5463 173.691 60.8464C172.051 60.1465 170.557 58.9881 169.21 57.3712L163.788 50.8613ZM168.432 51.6777L171.444 55.2943C172.378 56.4148 173.394 57.202 174.493 57.656C175.603 58.1242 176.725 58.2592 177.857 58.0609C179.001 57.8768 180.083 57.3595 181.104 56.5089C182.14 55.6465 182.844 54.6753 183.218 53.5953C183.618 52.5177 183.687 51.3904 183.428 50.2134C183.18 49.0506 182.589 47.9089 181.656 46.7885L178.644 43.1718L168.432 51.6777Z" fill="black"/>
        <mask id="path-8-outside-1_2042_569" maskUnits="userSpaceOnUse" x="84.2641" y="89.6844" width="18.055" height="24.8638" fill="black">
        <rect fill="black" x="84.2641" y="89.6844" width="18.055" height="24.8638"/>
        <path fill-rule="evenodd" clip-rule="evenodd" d="M90.2105 92.6469C90.1572 92.2673 90.4216 91.9164 90.8012 91.8631L92.9839 91.5563C93.3635 91.503 93.7144 91.7674 93.7677 92.147L93.9941 93.7577C94.0431 94.1063 94.3453 94.3608 94.6972 94.3704C94.9957 94.3786 95.2937 94.3977 95.5912 94.4276C96.365 94.4917 97.0831 94.6304 97.7455 94.8437C98.0755 94.9499 98.2497 95.3007 98.1638 95.6365L97.6337 97.7079C97.5313 98.1081 97.1045 98.3285 96.7087 98.2102C96.1854 98.054 95.6722 97.945 95.1691 97.8833C94.431 97.7785 93.729 97.7729 93.0632 97.8665C92.4697 97.9499 92.0012 98.0828 91.6578 98.2651C91.3123 98.4328 91.0743 98.6301 90.9438 98.857C90.8133 99.0839 90.7666 99.3288 90.8035 99.5917C90.8508 99.9277 91.0407 100.177 91.3735 100.338C91.7186 100.484 92.1538 100.586 92.6789 100.647C93.2164 100.69 93.7984 100.735 94.4249 100.781C95.0658 100.825 95.7046 100.906 96.3414 101.026C96.9905 101.128 97.592 101.312 98.1459 101.576C98.6977 101.827 99.1636 102.2 99.5435 102.698C99.9359 103.179 100.189 103.822 100.301 104.625C100.427 105.516 100.289 106.377 99.8895 107.208C99.502 108.022 98.8407 108.726 97.9055 109.319C97.5807 109.528 97.2195 109.712 96.8219 109.874C96.5103 110 96.3102 110.315 96.357 110.648L96.5711 112.173C96.6245 112.552 96.36 112.903 95.9805 112.956L93.7978 113.263C93.4182 113.316 93.0673 113.052 93.0139 112.672L92.8178 111.277C92.7684 110.925 92.4612 110.67 92.106 110.666C91.5993 110.662 91.0963 110.629 90.5971 110.57C89.658 110.443 88.8421 110.243 88.1496 109.969C87.8391 109.847 87.6895 109.503 87.7804 109.182L88.3641 107.12C88.4803 106.71 88.9357 106.502 89.3374 106.645C89.8782 106.838 90.4606 106.991 91.0844 107.105C92.0209 107.256 92.9307 107.27 93.8137 107.146C94.4072 107.062 94.8777 106.944 95.2252 106.791C95.5707 106.623 95.8107 106.44 95.9453 106.243C96.0924 106.028 96.1484 105.797 96.1135 105.549C96.0642 105.198 95.866 104.943 95.5188 104.783C95.1716 104.624 94.7354 104.514 94.2103 104.453C93.6852 104.393 93.1021 104.341 92.4612 104.297C91.8348 104.251 91.1959 104.169 90.5447 104.052C89.908 103.933 89.3137 103.749 88.7619 103.498C88.2081 103.234 87.7349 102.861 87.3426 102.38C86.9481 101.884 86.6934 101.227 86.5785 100.409C86.4491 99.4887 86.5782 98.6215 86.9657 97.8073C87.3676 96.9911 88.0362 96.2864 88.9714 95.6932C89.2824 95.4959 89.6242 95.3198 89.9967 95.1649C90.3051 95.0367 90.5023 94.7231 90.4558 94.3924L90.2105 92.6469Z"/>
        </mask>
        <path fill-rule="evenodd" clip-rule="evenodd" d="M90.2105 92.6469C90.1572 92.2673 90.4216 91.9164 90.8012 91.8631L92.9839 91.5563C93.3635 91.503 93.7144 91.7674 93.7677 92.147L93.9941 93.7577C94.0431 94.1063 94.3453 94.3608 94.6972 94.3704C94.9957 94.3786 95.2937 94.3977 95.5912 94.4276C96.365 94.4917 97.0831 94.6304 97.7455 94.8437C98.0755 94.9499 98.2497 95.3007 98.1638 95.6365L97.6337 97.7079C97.5313 98.1081 97.1045 98.3285 96.7087 98.2102C96.1854 98.054 95.6722 97.945 95.1691 97.8833C94.431 97.7785 93.729 97.7729 93.0632 97.8665C92.4697 97.9499 92.0012 98.0828 91.6578 98.2651C91.3123 98.4328 91.0743 98.6301 90.9438 98.857C90.8133 99.0839 90.7666 99.3288 90.8035 99.5917C90.8508 99.9277 91.0407 100.177 91.3735 100.338C91.7186 100.484 92.1538 100.586 92.6789 100.647C93.2164 100.69 93.7984 100.735 94.4249 100.781C95.0658 100.825 95.7046 100.906 96.3414 101.026C96.9905 101.128 97.592 101.312 98.1459 101.576C98.6977 101.827 99.1636 102.2 99.5435 102.698C99.9359 103.179 100.189 103.822 100.301 104.625C100.427 105.516 100.289 106.377 99.8895 107.208C99.502 108.022 98.8407 108.726 97.9055 109.319C97.5807 109.528 97.2195 109.712 96.8219 109.874C96.5103 110 96.3102 110.315 96.357 110.648L96.5711 112.173C96.6245 112.552 96.36 112.903 95.9805 112.956L93.7978 113.263C93.4182 113.316 93.0673 113.052 93.0139 112.672L92.8178 111.277C92.7684 110.925 92.4612 110.67 92.106 110.666C91.5993 110.662 91.0963 110.629 90.5971 110.57C89.658 110.443 88.8421 110.243 88.1496 109.969C87.8391 109.847 87.6895 109.503 87.7804 109.182L88.3641 107.12C88.4803 106.71 88.9357 106.502 89.3374 106.645C89.8782 106.838 90.4606 106.991 91.0844 107.105C92.0209 107.256 92.9307 107.27 93.8137 107.146C94.4072 107.062 94.8777 106.944 95.2252 106.791C95.5707 106.623 95.8107 106.44 95.9453 106.243C96.0924 106.028 96.1484 105.797 96.1135 105.549C96.0642 105.198 95.866 104.943 95.5188 104.783C95.1716 104.624 94.7354 104.514 94.2103 104.453C93.6852 104.393 93.1021 104.341 92.4612 104.297C91.8348 104.251 91.1959 104.169 90.5447 104.052C89.908 103.933 89.3137 103.749 88.7619 103.498C88.2081 103.234 87.7349 102.861 87.3426 102.38C86.9481 101.884 86.6934 101.227 86.5785 100.409C86.4491 99.4887 86.5782 98.6215 86.9657 97.8073C87.3676 96.9911 88.0362 96.2864 88.9714 95.6932C89.2824 95.4959 89.6242 95.3198 89.9967 95.1649C90.3051 95.0367 90.5023 94.7231 90.4558 94.3924L90.2105 92.6469Z" fill="black"/>
        <path d="M95.5912 94.4276L95.5738 94.6003L95.5769 94.6006L95.5912 94.4276ZM95.1691 97.8833L95.1446 98.0551L95.1479 98.0555L95.1691 97.8833ZM91.6578 98.2651L91.7336 98.4213L91.7391 98.4183L91.6578 98.2651ZM90.9438 98.857L90.7934 98.7705L90.7934 98.7705L90.9438 98.857ZM91.3735 100.338L91.2975 100.495L91.3062 100.498L91.3735 100.338ZM92.6789 100.647L92.6591 100.819L92.6648 100.819L92.6789 100.647ZM94.4249 100.781L94.4122 100.954L94.413 100.954L94.4249 100.781ZM96.3414 101.026L96.3095 101.196L96.3143 101.197L96.3414 101.026ZM98.1459 101.576L98.071 101.733L98.0742 101.734L98.1459 101.576ZM99.5435 102.698L99.4055 102.804L99.4091 102.808L99.5435 102.698ZM99.8895 107.208L99.7331 107.133L99.7328 107.133L99.8895 107.208ZM97.9055 109.319L97.8125 109.172L97.8117 109.173L97.9055 109.319ZM90.5971 110.57L90.5739 110.741L90.5765 110.742L90.5971 110.57ZM91.0844 107.105L91.0534 107.275L91.0567 107.276L91.0844 107.105ZM95.2252 106.791L95.2952 106.95L95.301 106.947L95.2252 106.791ZM95.9453 106.243L95.8023 106.145L95.8019 106.145L95.9453 106.243ZM95.5188 104.783L95.4463 104.941L95.4463 104.941L95.5188 104.783ZM92.4612 104.297L92.4485 104.47L92.4493 104.47L92.4612 104.297ZM90.5447 104.052L90.5128 104.223L90.514 104.223L90.5447 104.052ZM88.7619 103.498L88.6871 103.655L88.6903 103.656L88.7619 103.498ZM87.3426 102.38L87.2068 102.488L87.2081 102.489L87.3426 102.38ZM86.9657 97.8073L86.81 97.7306L86.809 97.7327L86.9657 97.8073ZM88.9714 95.6932L88.8784 95.5467L88.9714 95.6932ZM89.9967 95.1649L89.9301 95.0047L89.9967 95.1649ZM88.1496 109.969L88.0859 110.131L88.1496 109.969ZM87.7804 109.182L87.6135 109.135L87.7804 109.182ZM88.3641 107.12L88.1972 107.073L88.3641 107.12ZM89.3374 106.645L89.2791 106.808L89.3374 106.645ZM98.1638 95.6365L97.9957 95.5935L98.1638 95.6365ZM92.8178 111.277L92.646 111.301L92.8178 111.277ZM92.106 110.666L92.1044 110.84L92.106 110.666ZM93.7978 113.263L93.7736 113.091L93.7978 113.263ZM93.0139 112.672L92.8421 112.697L93.0139 112.672ZM92.9597 91.3845L90.777 91.6912L90.8253 92.0349L93.008 91.7281L92.9597 91.3845ZM94.1659 93.7336L93.9396 92.1228L93.5959 92.1711L93.8223 93.7819L94.1659 93.7336ZM95.6086 94.255C95.3069 94.2246 95.0046 94.2053 94.7019 94.197L94.6924 94.5439C94.9867 94.5519 95.2805 94.5707 95.5739 94.6003L95.6086 94.255ZM97.7987 94.6785C97.1223 94.4607 96.3911 94.3197 95.6055 94.2547L95.5769 94.6006C96.339 94.6636 97.0439 94.8 97.6923 95.0088L97.7987 94.6785ZM97.8018 97.7509L98.3319 95.6795L97.9957 95.5935L97.4656 97.6649L97.8018 97.7509ZM95.1479 98.0555C95.6407 98.1159 96.1443 98.2228 96.659 98.3765L96.7583 98.044C96.2264 97.8851 95.7036 97.7741 95.1902 97.7111L95.1479 98.0555ZM93.0873 98.0383C93.7354 97.9472 94.421 97.9523 95.1447 98.0551L95.1934 97.7115C94.441 97.6047 93.7226 97.5986 93.039 97.6947L93.0873 98.0383ZM91.7391 98.4183C92.0578 98.2492 92.5042 98.1202 93.0873 98.0383L93.039 97.6947C92.4351 97.7795 91.9446 97.9163 91.5764 98.1118L91.7391 98.4183ZM91.0942 98.9435C91.201 98.7578 91.4055 98.5804 91.7336 98.4212L91.582 98.109C91.2191 98.2852 90.9476 98.5024 90.7934 98.7705L91.0942 98.9435ZM90.9753 99.5676C90.9437 99.3423 90.9833 99.1364 91.0942 98.9435L90.7934 98.7705C90.6434 99.0314 90.5895 99.3153 90.6317 99.6159L90.9753 99.5676ZM91.4493 100.182C91.163 100.043 91.0137 99.8405 90.9753 99.5676L90.6317 99.6159C90.6878 100.015 90.9185 100.31 91.2976 100.494L91.4493 100.182ZM92.6987 100.474C92.1837 100.415 91.7659 100.315 91.4407 100.178L91.3062 100.498C91.6713 100.652 92.1238 100.757 92.6591 100.819L92.6987 100.474ZM94.4376 100.608C93.8115 100.562 93.23 100.517 92.6929 100.474L92.6648 100.819C93.2029 100.863 93.7853 100.908 94.4122 100.954L94.4376 100.608ZM96.3733 100.855C95.73 100.735 95.0845 100.652 94.4368 100.608L94.413 100.954C95.0472 100.998 95.6793 101.078 96.3095 101.196L96.3733 100.855ZM98.2207 101.42C97.6507 101.147 97.0329 100.959 96.3684 100.854L96.3143 101.197C96.9481 101.297 97.5333 101.476 98.071 101.733L98.2207 101.42ZM99.6814 102.593C99.2847 102.073 98.7963 101.681 98.2175 101.418L98.0742 101.734C98.599 101.972 99.0424 102.328 99.4056 102.804L99.6814 102.593ZM100.473 104.601C100.357 103.776 100.096 103.101 99.678 102.589L99.4091 102.808C99.7762 103.258 100.02 103.868 100.13 104.649L100.473 104.601ZM100.046 107.283C100.46 106.422 100.603 105.527 100.473 104.601L100.13 104.649C100.25 105.505 100.119 106.332 99.7331 107.133L100.046 107.283ZM97.9984 109.465C98.9549 108.859 99.6417 108.132 100.046 107.282L99.7328 107.133C99.3623 107.912 98.7264 108.593 97.8125 109.172L97.9984 109.465ZM96.8872 110.035C97.2936 109.87 97.6645 109.68 97.9992 109.465L97.8117 109.173C97.4969 109.375 97.1454 109.555 96.7567 109.713L96.8872 110.035ZM96.1851 110.673L96.3993 112.197L96.743 112.148L96.5288 110.624L96.1851 110.673ZM95.9563 112.785L93.7736 113.091L93.8219 113.435L96.0046 113.128L95.9563 112.785ZM93.1857 112.648L92.9896 111.253L92.646 111.301L92.8421 112.697L93.1857 112.648ZM90.5765 110.742C91.082 110.802 91.5914 110.835 92.1044 110.84L92.1077 110.493C91.6072 110.488 91.1106 110.456 90.6178 110.397L90.5765 110.742ZM88.0859 110.131C88.7944 110.41 89.6244 110.613 90.5739 110.741L90.6203 110.398C89.6915 110.272 88.8898 110.075 88.2133 109.808L88.0859 110.131ZM88.1972 107.073L87.6135 109.135L87.9474 109.23L88.5311 107.168L88.1972 107.073ZM91.1155 106.934C90.5 106.822 89.9268 106.671 89.3957 106.482L89.2791 106.808C89.8297 107.005 90.4212 107.16 91.0534 107.275L91.1155 106.934ZM93.7896 106.974C92.9248 107.095 92.0326 107.082 91.1121 106.933L91.0567 107.276C92.0093 107.43 92.9366 107.444 93.8378 107.317L93.7896 106.974ZM95.1553 106.632C94.8282 106.776 94.3752 106.892 93.7896 106.974L93.8378 107.317C94.4392 107.233 94.9272 107.112 95.2952 106.95L95.1553 106.632ZM95.8019 106.145C95.6917 106.307 95.4825 106.473 95.1495 106.635L95.301 106.947C95.6589 106.773 95.9297 106.574 96.0887 106.34L95.8019 106.145ZM95.9417 105.573C95.9703 105.777 95.9257 105.965 95.8023 106.145L96.0884 106.341C96.259 106.092 96.3265 105.818 96.2853 105.525L95.9417 105.573ZM95.4463 104.941C95.7449 105.078 95.9014 105.286 95.9417 105.573L96.2853 105.525C96.2271 105.11 95.9871 104.808 95.5913 104.626L95.4463 104.941ZM94.1905 104.626C94.7038 104.685 95.1208 104.791 95.4463 104.941L95.5913 104.626C95.2224 104.456 94.767 104.343 94.2301 104.281L94.1905 104.626ZM92.4493 104.47C93.0882 104.514 93.6685 104.566 94.1905 104.626L94.2301 104.281C93.7018 104.22 93.1161 104.168 92.4731 104.124L92.4493 104.47ZM90.514 104.223C91.1709 104.341 91.8157 104.423 92.4485 104.47L92.4739 104.124C91.8538 104.078 91.221 103.998 90.5754 103.882L90.514 104.223ZM88.6903 103.656C89.2556 103.913 89.8634 104.101 90.5128 104.223L90.5766 103.882C89.9527 103.765 89.3718 103.584 88.8336 103.34L88.6903 103.656ZM87.2081 102.489C87.6165 102.99 88.1099 103.379 88.6871 103.655L88.8368 103.342C88.3062 103.088 87.8534 102.731 87.477 102.27L87.2081 102.489ZM86.4067 100.433C86.5247 101.273 86.7881 101.961 87.2068 102.488L87.4783 102.272C87.1082 101.806 86.8622 101.181 86.7503 100.385L86.4067 100.433ZM86.809 97.7327C86.4065 98.5786 86.2727 99.4803 86.4067 100.433L86.7503 100.385C86.6255 99.4971 86.75 98.6643 87.1223 97.8819L86.809 97.7327ZM88.8784 95.5467C87.9222 96.1532 87.2288 96.8802 86.81 97.7306L87.1213 97.8839C87.5064 97.102 88.1502 96.4195 89.0643 95.8397L88.8784 95.5467ZM89.9301 95.0047C89.5493 95.163 89.1986 95.3436 88.8784 95.5467L89.0643 95.8397C89.3662 95.6482 89.6991 95.4765 90.0633 95.3251L89.9301 95.0047ZM90.0387 92.6711L90.284 94.4165L90.6276 94.3682L90.3823 92.6228L90.0387 92.6711ZM90.0633 95.3251C90.4378 95.1694 90.6861 94.7843 90.6276 94.3682L90.284 94.4165C90.3185 94.6619 90.1724 94.904 89.9301 95.0047L90.0633 95.3251ZM93.8223 93.7819C93.8838 94.2195 94.2613 94.532 94.6924 94.5439L94.7019 94.197C94.4294 94.1895 94.2024 93.993 94.1659 93.7336L93.8223 93.7819ZM88.2133 109.808C87.994 109.722 87.8782 109.474 87.9474 109.23L87.6135 109.135C87.5008 109.533 87.6841 109.972 88.0859 110.131L88.2133 109.808ZM96.3993 112.197C96.4393 112.481 96.241 112.745 95.9563 112.785L96.0046 113.128C96.4791 113.061 96.8096 112.623 96.743 112.148L96.3993 112.197ZM96.7567 109.713C96.3783 109.867 96.1263 110.254 96.1851 110.673L96.5288 110.624C96.4941 110.377 96.6424 110.134 96.8872 110.035L96.7567 109.713ZM88.5311 107.168C88.6172 106.863 88.9623 106.695 89.2791 106.808L89.3957 106.482C88.9091 106.308 88.3434 106.556 88.1972 107.073L88.5311 107.168ZM97.6923 95.0088C97.9271 95.0844 98.061 95.3383 97.9957 95.5935L98.3319 95.6795C98.4384 95.263 98.2238 94.8154 97.7987 94.6785L97.6923 95.0088ZM93.008 91.7281C93.2927 91.6881 93.5559 91.8864 93.5959 92.1711L93.9396 92.1228C93.8729 91.6484 93.4342 91.3178 92.9597 91.3845L93.008 91.7281ZM92.9896 111.253C92.9276 110.812 92.544 110.497 92.1077 110.493L92.1044 110.84C92.3785 110.843 92.6092 111.039 92.646 111.301L92.9896 111.253ZM90.777 91.6912C90.3026 91.7579 89.972 92.1966 90.0387 92.6711L90.3823 92.6228C90.3423 92.3381 90.5407 92.0749 90.8253 92.0349L90.777 91.6912ZM97.4656 97.6649C97.3896 97.962 97.0676 98.1364 96.7583 98.044L96.659 98.3765C97.1415 98.5206 97.673 98.2543 97.8018 97.7509L97.4656 97.6649ZM93.7736 113.091C93.4889 113.131 93.2257 112.933 93.1857 112.648L92.8421 112.697C92.9088 113.171 93.3475 113.502 93.8219 113.435L93.7736 113.091Z" fill="black" mask="url(#path-8-outside-1_2042_569)"/>
        <path d="M54.1043 102.277C54.1043 102.277 60.837 99.7994 65.9994 98.4041C71.1617 97.0088 78.0263 95.4699 78.0263 95.4699" stroke="black" stroke-width="4.16411" stroke-linecap="round"/>
        <path d="M47.0631 114.709C47.0631 114.709 51.8493 112.321 61.6594 109.228C71.4694 106.135 75.8443 105.593 75.8443 105.593" stroke="black" stroke-width="4.16411" stroke-linecap="round"/>
        <path d="M62.5376 118.853C62.5376 118.853 65.6043 117.523 70.1282 116.351C74.652 115.18 77.2608 114.679 77.2608 114.679" stroke="black" stroke-width="4.16411" stroke-linecap="round"/>
        <path d="M48.511 124.2C48.511 124.2 50.3061 123.33 51.846 122.71C53.3859 122.09 55.2991 121.38 55.2991 121.38" stroke="black" stroke-width="4.16411" stroke-linecap="round"/>
        <path d="M130 96.3499C134.597 96.5508 138.262 96.8438 140.366 97.0357L141.428 129.928C135.734 128.871 122.156 126.806 106.019 127.533C95.3561 128.014 86.3854 129.46 80.0714 130.788C76.9133 131.452 74.4168 132.088 72.7019 132.56C71.8444 132.796 71.1821 132.991 70.73 133.129C70.5039 133.198 70.3304 133.252 70.2112 133.29C70.1516 133.309 70.1057 133.324 70.0735 133.334L70.0357 133.347L70.0198 133.352C70.0193 133.352 70.0188 133.352 70.7345 135.511L70.0188 133.352C68.8266 133.747 68.1806 135.034 68.5759 136.226C68.9711 137.418 70.2575 138.064 71.4495 137.67L71.4542 137.668L71.479 137.66C71.5025 137.652 71.5397 137.64 71.5903 137.624C71.6917 137.592 71.847 137.543 72.0544 137.48C72.4693 137.354 73.0925 137.17 73.9091 136.945C75.5425 136.495 77.9485 135.882 81.0077 135.239C87.1283 133.951 95.851 132.544 106.224 132.077C124.91 131.235 140.082 134.253 142.841 134.845C144.564 135.215 146.105 133.852 146.051 132.16L144.859 95.223C144.819 94.0035 143.916 92.8218 142.498 92.6732C141.262 92.5437 136.535 92.0773 130 91.7974V96.2145L142.261 94.935L142.261 94.9383L130 96.2172V96.3499Z" fill="black"/>
        <path d="M143.66 110.429C148.652 111.985 152.674 113.378 154.954 114.191L144.54 145.966C140.038 143.921 129.669 139.786 117.463 138.766C109.407 138.093 102.563 138.14 97.7246 138.357C95.3044 138.466 93.3836 138.617 92.0611 138.741C91.3998 138.804 90.8879 138.859 90.5377 138.9C90.3626 138.921 90.2279 138.937 90.1352 138.949C90.0889 138.955 90.053 138.959 90.0278 138.963L89.9981 138.967L89.9893 138.968L89.9864 138.968L89.9853 138.968C89.9849 138.968 89.9845 138.969 90.2926 141.222L89.9845 138.969C88.7401 139.139 87.8693 140.285 88.0394 141.53C88.2096 142.774 89.3563 143.645 90.6007 143.475L90.6033 143.475L90.622 143.472C90.6398 143.47 90.6682 143.466 90.707 143.461C90.7845 143.451 90.9038 143.437 91.0631 143.418C91.3819 143.381 91.8609 143.329 92.4881 143.269C93.7426 143.151 95.5887 143.006 97.9283 142.901C102.609 142.691 109.255 142.644 117.084 143.298C130.908 144.454 142.317 149.886 144.477 150.972C145.965 151.719 147.7 150.929 148.194 149.422L159.849 113.86C160.257 112.614 159.705 111.084 158.26 110.551C156.95 110.068 151.847 108.214 144.914 106.055L143.66 110.429Z" fill="black"/>
        <path d="M59.2987 90.7758C59.2987 90.7758 71.884 86.3278 90.6479 83.6907C108.099 81.2382 125.851 82.0538 128.25 82.18C128.415 82.1887 128.54 82.3127 128.563 82.4762L133.74 119.308C133.77 119.525 133.603 119.717 133.383 119.705C130.513 119.555 113.229 118.792 95.9229 121.224C76.9713 123.888 59.1019 130.226 59.1019 130.226" stroke="black" stroke-width="4.16364" stroke-linecap="round"/>
        <path d="M11.651 181.46C10.7209 180.266 9.99799 178.993 9.48225 177.64C8.98106 176.275 8.75034 175.063 8.79008 174.002L11.7619 173.267C11.7577 174.253 11.9471 175.322 12.3299 176.474C12.7128 177.627 13.2729 178.676 14.0101 179.623C14.6339 180.424 15.2261 181.004 15.7865 181.363C16.3468 181.722 16.8634 181.904 17.3361 181.911C17.8234 181.905 18.2564 181.755 18.635 181.46C19.101 181.097 19.3419 180.641 19.3577 180.09C19.3881 179.529 19.2735 178.916 19.0141 178.252C18.7805 177.592 18.4813 176.877 18.1165 176.109C17.7631 175.354 17.4258 174.576 17.1047 173.773C16.8095 172.974 16.605 172.185 16.4911 171.408C16.4032 170.635 16.4909 169.876 16.7542 169.133C17.0176 168.39 17.5571 167.7 18.3726 167.065C19.2026 166.419 20.13 166.047 21.1547 165.951C22.2053 165.858 23.2861 166.104 24.3971 166.689C25.534 167.278 26.6469 168.271 27.7358 169.669C28.4503 170.587 29.0427 171.588 29.513 172.672C29.9832 173.756 30.2608 174.803 30.3456 175.814L27.4419 176.636C27.3165 175.634 27.0649 174.696 26.6871 173.82C26.3239 172.933 25.8814 172.155 25.3596 171.485C24.7471 170.698 24.1534 170.131 23.5784 169.784C23.0148 169.451 22.4894 169.287 22.0021 169.292C21.5261 169.312 21.0916 169.475 20.6984 169.781C20.2324 170.144 19.9785 170.599 19.9368 171.146C19.921 171.697 20.0372 172.296 20.2853 172.945C20.5448 173.609 20.8496 174.331 21.1999 175.111C21.5647 175.88 21.9019 176.658 22.2117 177.446C22.5328 178.249 22.7446 179.032 22.8471 179.794C22.961 180.571 22.8805 181.324 22.6058 182.053C22.3424 182.796 21.8103 183.479 21.0094 184.103C20.1939 184.738 19.2608 185.103 18.2102 185.196C17.1855 185.292 16.1047 185.046 14.9678 184.457C13.8455 183.857 12.7399 182.858 11.651 181.46Z" fill="black"/>
        <path d="M23.6633 196.388L42.2318 186.048L45.0748 188.164L40.5213 208.935L37.5006 206.687L41.9129 188.192L43.0679 189.051L26.6395 198.603L23.6633 196.388ZM29.562 195.187L32.0256 193.5L40.4212 199.749L39.5124 202.593L29.562 195.187Z" fill="black"/>
        <path d="M52.1951 216.533L58.3168 198.143L61.1278 199.079L64.6976 215.179L63.2265 214.69L75.6027 203.898L78.4137 204.834L72.3182 223.232L69.087 222.156L73.4946 208.828L74.1776 209.055L63.7181 218.034L62.1945 217.527L59.0984 204.036L59.8865 204.298L55.4526 217.617L52.1951 216.533Z" fill="black"/>
        <path d="M91.5715 215.287L101.205 215.473L101.148 218.435L91.5143 218.249L91.5715 215.287ZM91.688 223.598L102.623 223.809L102.564 226.826L88.0311 226.545L88.4051 207.168L102.551 207.441L102.493 210.458L91.9456 210.254L91.688 223.598Z" fill="black"/>
        <path d="M132.18 222.99L124.497 205.196L132.276 201.838C134.207 201.003 136.063 200.645 137.842 200.761C139.622 200.877 141.204 201.421 142.588 202.391C143.972 203.362 145.052 204.745 145.827 206.542C146.596 208.321 146.862 210.056 146.627 211.746C146.384 213.419 145.695 214.943 144.56 216.318C143.424 217.692 141.891 218.797 139.959 219.631L132.18 222.99ZM134.278 218.767L138.599 216.901C139.938 216.323 140.98 215.571 141.727 214.646C142.49 213.713 142.937 212.675 143.067 211.534C143.214 210.384 143.024 209.2 142.497 207.979C141.963 206.742 141.231 205.792 140.301 205.128C139.381 204.44 138.319 204.053 137.117 203.969C135.931 203.878 134.669 204.122 133.33 204.7L129.009 206.566L134.278 218.767Z" fill="black"/>
        <path d="M160.416 210.259L154.49 189.849L157.188 187.551L176.416 196.634L173.549 199.075L156.509 190.639L157.605 189.705L163.241 207.854L160.416 210.259ZM160.565 204.241L159.471 201.463L167.44 194.677L170.008 196.199L160.565 204.241Z" fill="black"/>
        <path d="M188.276 183.193L181.913 178.911L184.199 179.482L167.945 178.69L170.094 175.497L183.169 176.152L181.963 177.944L176.463 166.033L178.441 163.092L185.296 177.851L183.923 175.925L190.286 180.207L188.276 183.193Z" fill="black"/>
        <path fill-rule="evenodd" clip-rule="evenodd" d="M0 119.328C0 101.94 4.45339 85.5923 12.2818 71.3628L14.1961 73.2754C6.79617 86.9781 2.59573 102.663 2.59573 119.328C2.59573 132.505 5.22124 145.067 9.97764 156.522L7.99803 158.51C2.85004 146.483 0 133.239 0 119.328ZM191.517 158.022C196.534 146.125 199.307 133.051 199.307 119.328C199.307 103.207 195.479 87.9797 188.682 74.5059L186.691 76.3295C193.106 89.2897 196.711 103.888 196.711 119.328C196.711 132.362 194.142 144.795 189.483 156.15L191.517 158.022Z" fill="black"/>
    </g>
  </svg>