<svg width="50" height="50" viewBox="0 0 50 50" fill="none" xmlns="http://www.w3.org/2000/svg">
<circle cx="25" cy="25" r="24.7523" fill="#FFB1DB" stroke="black" stroke-width="0.495368"/>
<path d="M12.0189 13.6722C11.8169 13.8787 11.5982 14.0368 11.3627 14.1464C11.1272 14.2511 10.8862 14.3086 10.6397 14.3187C10.3907 14.3264 10.1486 14.2842 9.91347 14.1921C9.67831 14.1 9.46253 13.9579 9.26614 13.7658C9.06974 13.5736 8.92295 13.361 8.82575 13.1279C8.72855 12.8948 8.68234 12.6549 8.68712 12.4082C8.69185 12.1566 8.74648 11.9119 8.851 11.6741C8.95301 11.4338 9.10501 11.2105 9.30703 11.004C9.52628 10.7799 9.75988 10.6142 10.0078 10.5069C10.2582 10.397 10.5143 10.3494 10.776 10.364L10.7751 10.9693C10.5709 10.9716 10.3857 11.0097 10.2196 11.0837C10.0535 11.1528 9.90018 11.2591 9.75975 11.4026C9.62426 11.5411 9.52128 11.6917 9.45081 11.8544C9.38034 12.0171 9.34478 12.1819 9.3441 12.3488C9.34343 12.5157 9.37634 12.6785 9.44284 12.8372C9.5118 12.9933 9.61426 13.138 9.75023 13.271C9.88368 13.4016 10.0292 13.4996 10.1869 13.5652C10.347 13.6282 10.5117 13.6588 10.6811 13.6569C10.8479 13.6526 11.0107 13.6147 11.1693 13.5432C11.328 13.4718 11.4763 13.3655 11.6142 13.2245C11.7424 13.0936 11.8454 12.948 11.9234 12.7877C12.0013 12.6225 12.0453 12.4364 12.0555 12.2295L12.6953 12.3085C12.6706 12.5554 12.5973 12.799 12.4754 13.0395C12.3534 13.275 12.2012 13.4859 12.0189 13.6722ZM12.1766 12.7102L11.1871 11.742L11.6416 11.2775L12.6953 12.3085L12.1766 12.7102Z" fill="black"/>
<path d="M14.1326 8.91137L15.7328 8.00543L16.0114 8.49743L14.4112 9.40337L14.1326 8.91137ZM14.9596 10.2648L16.7759 9.23649L17.0596 9.73768L14.6456 11.1044L12.8233 7.8857L15.173 6.55543L15.4567 7.05663L13.7048 8.04847L14.9596 10.2648Z" fill="black"/>
<path d="M19.3747 8.74L18.5593 5.73102L17.3761 6.05165L17.224 5.49066L20.2534 4.66971L20.4055 5.23071L19.2223 5.55135L20.0377 8.56034L19.3747 8.74Z" fill="black"/>
<path d="M25.3789 7.69839L25.8902 4.03515L27.3973 4.24551C27.7218 4.2908 27.9918 4.38184 28.2075 4.51864C28.4266 4.65593 28.5854 4.83103 28.6837 5.04393C28.782 5.25683 28.8124 5.4976 28.775 5.76624C28.7375 6.03488 28.6423 6.25812 28.4894 6.43596C28.3365 6.6138 28.1359 6.73875 27.8876 6.81078C27.6427 6.88331 27.358 6.89693 27.0336 6.85164L25.9032 6.69388L26.2513 6.41701L26.0592 7.79335L25.3789 7.69839ZM26.2411 6.49028L25.9836 6.11822L27.0825 6.27161C27.3826 6.31349 27.6164 6.2821 27.7839 6.17744C27.9554 6.06978 28.0573 5.90082 28.0894 5.67056C28.122 5.43681 28.0704 5.24642 27.9344 5.0994C27.8019 4.95286 27.5856 4.85866 27.2856 4.81678L26.1866 4.66339L26.5369 4.37083L26.2411 6.49028Z" fill="black"/>
<path d="M29.7381 8.21352L32.7729 5.52257L33.3897 5.79991L33.3959 9.85807L32.7405 9.5634L32.8017 5.93526L33.0523 6.04794L30.3839 8.50386L29.7381 8.21352ZM30.7879 7.74698L31.1776 7.33125L32.9992 8.15028L32.9469 8.71768L30.7879 7.74698Z" fill="black"/>
<path d="M34.9051 10.771L37.1352 7.82015L37.6832 8.2343L35.4532 11.1852L34.9051 10.771Z" fill="black"/>
<path d="M37.0854 12.2868L39.9274 9.91953L40.9622 11.1619C41.2193 11.4704 41.3852 11.7907 41.46 12.1227C41.5348 12.4547 41.5207 12.7735 41.4178 13.0793C41.3149 13.3851 41.12 13.6574 40.8331 13.8964C40.5489 14.1331 40.2458 14.2756 39.9237 14.3238C39.6044 14.3697 39.2882 14.3259 38.9753 14.1923C38.6623 14.0588 38.3773 13.8377 38.1203 13.5291L37.0854 12.2868ZM37.9717 12.4426L38.5466 13.1328C38.7247 13.3466 38.9186 13.4968 39.1283 13.5835C39.3402 13.6728 39.5543 13.6986 39.7703 13.6607C39.9886 13.6256 40.1952 13.5269 40.3901 13.3646C40.5877 13.2 40.7221 13.0146 40.7934 12.8085C40.8697 12.6029 40.883 12.3878 40.8335 12.1631C40.7862 11.9412 40.6735 11.7233 40.4954 11.5095L39.9205 10.8193L37.9717 12.4426Z" fill="black"/>
<mask id="path-9-outside-1_11_2196" maskUnits="userSpaceOnUse" x="19.5698" y="17.746" width="4.79611" height="6.4983" fill="black">
<rect fill="white" x="19.5698" y="17.746" width="4.79611" height="6.4983"/>
<path fill-rule="evenodd" clip-rule="evenodd" d="M21.7854 19.159C21.7734 19.0735 21.8329 18.9944 21.9184 18.9824L22.4101 18.9133C22.4956 18.9013 22.5747 18.9609 22.5867 19.0464L22.6377 19.4091C22.6487 19.4876 22.7167 19.5449 22.796 19.5471C22.8629 19.549 22.9296 19.5533 22.9963 19.56C23.1706 19.5744 23.3324 19.6057 23.4816 19.6537C23.5559 19.6776 23.5952 19.7567 23.5758 19.8323L23.4564 20.2989C23.4334 20.3891 23.3372 20.4387 23.248 20.4121C23.1302 20.3769 23.0146 20.3523 22.9012 20.3384C22.735 20.3148 22.5768 20.3136 22.4269 20.3346C22.2932 20.3534 22.1876 20.3834 22.1103 20.4244C22.0325 20.4622 21.9788 20.5067 21.9495 20.5578C21.9201 20.6089 21.9095 20.664 21.9178 20.7233C21.9285 20.799 21.9713 20.855 22.0462 20.8915C22.124 20.9242 22.222 20.9473 22.3403 20.9609C22.4614 20.9707 22.5925 20.9808 22.7336 20.9912C22.878 21.0011 23.0219 21.0194 23.1653 21.0463C23.3115 21.0693 23.447 21.1107 23.5718 21.1703C23.6961 21.2267 23.801 21.3109 23.8866 21.423C23.975 21.5314 24.0319 21.6761 24.0574 21.8571C24.0856 22.0578 24.0546 22.2518 23.9646 22.4389C23.8773 22.6223 23.7283 22.7808 23.5176 22.9144C23.4442 22.9616 23.3626 23.0034 23.2726 23.0398C23.2024 23.0682 23.1573 23.1393 23.1678 23.2143L23.2163 23.5595C23.2283 23.645 23.1688 23.7241 23.0833 23.7361L22.5916 23.8052C22.5061 23.8172 22.427 23.7576 22.415 23.6721L22.3705 23.3556C22.3594 23.2763 22.2902 23.2187 22.2102 23.218C22.0964 23.2169 21.9835 23.2096 21.8713 23.1962C21.6598 23.1676 21.476 23.1225 21.32 23.061C21.2501 23.0334 21.2164 22.956 21.2369 22.8837L21.3683 22.4192C21.3945 22.3267 21.4971 22.2798 21.5876 22.3121C21.7094 22.3556 21.8406 22.3901 21.9811 22.4157C22.1921 22.4498 22.397 22.4528 22.5959 22.4249C22.7296 22.4061 22.8356 22.3795 22.9139 22.345C22.9917 22.3072 23.0458 22.266 23.0761 22.2215C23.1092 22.1732 23.1218 22.1211 23.114 22.0652C23.1029 21.9862 23.0582 21.9287 22.98 21.8927C22.9018 21.8567 22.8035 21.832 22.6853 21.8184C22.567 21.8048 22.4356 21.7931 22.2913 21.7832C22.1501 21.7728 22.0062 21.7544 21.8595 21.7281C21.7161 21.7012 21.5823 21.6597 21.4579 21.6033C21.3332 21.5437 21.2266 21.4597 21.1382 21.3513C21.0494 21.2396 20.992 21.0916 20.9661 20.9074C20.937 20.7001 20.966 20.5047 21.0533 20.3213C21.1439 20.1374 21.2945 19.9787 21.5051 19.8451C21.5755 19.8005 21.6528 19.7607 21.7371 19.7257C21.8066 19.6968 21.851 19.6262 21.8406 19.5516L21.7854 19.159Z"/>
</mask>
<path fill-rule="evenodd" clip-rule="evenodd" d="M21.7854 19.159C21.7734 19.0735 21.8329 18.9944 21.9184 18.9824L22.4101 18.9133C22.4956 18.9013 22.5747 18.9609 22.5867 19.0464L22.6377 19.4091C22.6487 19.4876 22.7167 19.5449 22.796 19.5471C22.8629 19.549 22.9296 19.5533 22.9963 19.56C23.1706 19.5744 23.3324 19.6057 23.4816 19.6537C23.5559 19.6776 23.5952 19.7567 23.5758 19.8323L23.4564 20.2989C23.4334 20.3891 23.3372 20.4387 23.248 20.4121C23.1302 20.3769 23.0146 20.3523 22.9012 20.3384C22.735 20.3148 22.5768 20.3136 22.4269 20.3346C22.2932 20.3534 22.1876 20.3834 22.1103 20.4244C22.0325 20.4622 21.9788 20.5067 21.9495 20.5578C21.9201 20.6089 21.9095 20.664 21.9178 20.7233C21.9285 20.799 21.9713 20.855 22.0462 20.8915C22.124 20.9242 22.222 20.9473 22.3403 20.9609C22.4614 20.9707 22.5925 20.9808 22.7336 20.9912C22.878 21.0011 23.0219 21.0194 23.1653 21.0463C23.3115 21.0693 23.447 21.1107 23.5718 21.1703C23.6961 21.2267 23.801 21.3109 23.8866 21.423C23.975 21.5314 24.0319 21.6761 24.0574 21.8571C24.0856 22.0578 24.0546 22.2518 23.9646 22.4389C23.8773 22.6223 23.7283 22.7808 23.5176 22.9144C23.4442 22.9616 23.3626 23.0034 23.2726 23.0398C23.2024 23.0682 23.1573 23.1393 23.1678 23.2143L23.2163 23.5595C23.2283 23.645 23.1688 23.7241 23.0833 23.7361L22.5916 23.8052C22.5061 23.8172 22.427 23.7576 22.415 23.6721L22.3705 23.3556C22.3594 23.2763 22.2902 23.2187 22.2102 23.218C22.0964 23.2169 21.9835 23.2096 21.8713 23.1962C21.6598 23.1676 21.476 23.1225 21.32 23.061C21.2501 23.0334 21.2164 22.956 21.2369 22.8837L21.3683 22.4192C21.3945 22.3267 21.4971 22.2798 21.5876 22.3121C21.7094 22.3556 21.8406 22.3901 21.9811 22.4157C22.1921 22.4498 22.397 22.4528 22.5959 22.4249C22.7296 22.4061 22.8356 22.3795 22.9139 22.345C22.9917 22.3072 23.0458 22.266 23.0761 22.2215C23.1092 22.1732 23.1218 22.1211 23.114 22.0652C23.1029 21.9862 23.0582 21.9287 22.98 21.8927C22.9018 21.8567 22.8035 21.832 22.6853 21.8184C22.567 21.8048 22.4356 21.7931 22.2913 21.7832C22.1501 21.7728 22.0062 21.7544 21.8595 21.7281C21.7161 21.7012 21.5823 21.6597 21.4579 21.6033C21.3332 21.5437 21.2266 21.4597 21.1382 21.3513C21.0494 21.2396 20.992 21.0916 20.9661 20.9074C20.937 20.7001 20.966 20.5047 21.0533 20.3213C21.1439 20.1374 21.2945 19.9787 21.5051 19.8451C21.5755 19.8005 21.6528 19.7607 21.7371 19.7257C21.8066 19.6968 21.851 19.6262 21.8406 19.5516L21.7854 19.159Z" fill="black"/>
<path d="M22.9963 19.56L22.9924 19.5989L22.9931 19.5989L22.9963 19.56ZM22.9012 20.3384L22.8957 20.3771L22.8965 20.3772L22.9012 20.3384ZM22.1103 20.4244L22.1274 20.4596L22.1286 20.4589L22.1103 20.4244ZM21.9495 20.5578L21.9156 20.5383L21.9156 20.5383L21.9495 20.5578ZM22.0462 20.8915L22.0291 20.9267L22.0311 20.9275L22.0462 20.8915ZM22.3403 20.9609L22.3358 20.9997L22.3371 20.9998L22.3403 20.9609ZM22.7336 20.9912L22.7307 21.0301L22.7309 21.0302L22.7336 20.9912ZM23.1653 21.0463L23.1581 21.0847L23.1592 21.0849L23.1653 21.0463ZM23.5718 21.1703L23.5549 21.2056L23.5557 21.2059L23.5718 21.1703ZM23.8866 21.423L23.8555 21.4468L23.8563 21.4477L23.8866 21.423ZM23.9646 22.4389L23.9293 22.4219L23.9293 22.4221L23.9646 22.4389ZM23.5176 22.9144L23.4967 22.8814L23.4965 22.8816L23.5176 22.9144ZM21.8713 23.1962L21.8661 23.2349L21.8667 23.235L21.8713 23.1962ZM21.9811 22.4157L21.9741 22.4541L21.9749 22.4542L21.9811 22.4157ZM22.9139 22.345L22.9297 22.3808L22.931 22.3801L22.9139 22.345ZM23.0761 22.2215L23.0439 22.1994L23.0438 22.1995L23.0761 22.2215ZM22.98 21.8927L22.9963 21.8572L22.9963 21.8572L22.98 21.8927ZM22.6853 21.8184L22.6808 21.8572L22.6853 21.8184ZM22.2913 21.7832L22.2884 21.8221L22.2886 21.8222L22.2913 21.7832ZM21.8595 21.7281L21.8524 21.7665L21.8526 21.7665L21.8595 21.7281ZM21.4579 21.6033L21.4411 21.6386L21.4418 21.6389L21.4579 21.6033ZM21.1382 21.3513L21.1076 21.3756L21.1079 21.376L21.1382 21.3513ZM21.0533 20.3213L21.0183 20.304L21.018 20.3045L21.0533 20.3213ZM21.5051 19.8451L21.5261 19.8781L21.5051 19.8451ZM22.6377 19.4091L22.6764 19.4037L22.6377 19.4091ZM21.32 23.061L21.3057 23.0973L21.32 23.061ZM21.2369 22.8837L21.2745 22.8943L21.2369 22.8837ZM23.2726 23.0398L23.2873 23.076L23.2726 23.0398ZM23.1678 23.2143L23.1291 23.2198L23.1678 23.2143ZM21.3683 22.4192L21.3307 22.4085L21.3683 22.4192ZM21.5876 22.3121L21.5744 22.3489L21.5876 22.3121ZM23.4816 19.6537L23.4936 19.6165L23.4816 19.6537ZM23.5758 19.8323L23.538 19.8226L23.5758 19.8323ZM22.5867 19.0464L22.548 19.0518L22.5867 19.0464ZM22.2102 23.218L22.2099 23.2571L22.2102 23.218ZM23.4564 20.2989L23.4943 20.3086L23.4564 20.2989ZM23.248 20.4121L23.2369 20.4495L23.248 20.4121ZM22.4047 18.8746L21.913 18.9437L21.9239 19.0211L22.4155 18.952L22.4047 18.8746ZM22.6764 19.4037L22.6254 19.0409L22.548 19.0518L22.599 19.4146L22.6764 19.4037ZM23.0002 19.5211C22.9326 19.5143 22.8649 19.51 22.7971 19.5081L22.7949 19.5862C22.8608 19.588 22.9267 19.5923 22.9924 19.5989L23.0002 19.5211ZM23.4936 19.6165C23.3412 19.5674 23.1765 19.5357 22.9996 19.521L22.9931 19.5989C23.1648 19.6132 23.3236 19.6439 23.4696 19.6909L23.4936 19.6165ZM23.4943 20.3086L23.6137 19.842L23.538 19.8226L23.4186 20.2892L23.4943 20.3086ZM22.8965 20.3772C23.0075 20.3908 23.1209 20.4149 23.2369 20.4495L23.2592 20.3746C23.1394 20.3388 23.0217 20.3138 22.906 20.2996L22.8965 20.3772ZM22.4323 20.3733C22.5783 20.3528 22.7327 20.354 22.8957 20.3771L22.9067 20.2997C22.7372 20.2757 22.5754 20.2743 22.4214 20.2959L22.4323 20.3733ZM22.1286 20.4589C22.2004 20.4208 22.3009 20.3918 22.4323 20.3733L22.4214 20.2959C22.2854 20.315 22.1749 20.3459 22.0919 20.3899L22.1286 20.4589ZM21.9833 20.5772C22.0074 20.5354 22.0534 20.4955 22.1273 20.4596L22.0932 20.3893C22.0115 20.429 21.9503 20.4779 21.9156 20.5383L21.9833 20.5772ZM21.9565 20.7178C21.9494 20.6671 21.9583 20.6207 21.9833 20.5772L21.9156 20.5383C21.8818 20.597 21.8696 20.661 21.8791 20.7287L21.9565 20.7178ZM22.0633 20.8563C21.9988 20.825 21.9652 20.7793 21.9565 20.7178L21.8791 20.7287C21.8918 20.8186 21.9437 20.8851 22.0291 20.9266L22.0633 20.8563ZM22.3447 20.922C22.2287 20.9087 22.1346 20.8862 22.0614 20.8554L22.0311 20.9275C22.1133 20.9621 22.2152 20.9859 22.3358 20.9997L22.3447 20.922ZM22.7365 20.9522C22.5954 20.9418 22.4644 20.9317 22.3434 20.9219L22.3371 20.9998C22.4583 21.0097 22.5895 21.0198 22.7307 21.0301L22.7365 20.9522ZM23.1725 21.0078C23.0276 20.9807 22.8822 20.9622 22.7363 20.9522L22.7309 21.0302C22.8738 21.04 23.0162 21.0581 23.1581 21.0847L23.1725 21.0078ZM23.5887 21.1351C23.4602 21.0737 23.3211 21.0313 23.1714 21.0076L23.1592 21.0849C23.302 21.1074 23.4338 21.1477 23.5549 21.2056L23.5887 21.1351ZM23.9177 21.3993C23.8283 21.2823 23.7183 21.1938 23.5879 21.1347L23.5557 21.2059C23.6739 21.2595 23.7738 21.3396 23.8556 21.4468L23.9177 21.3993ZM24.0961 21.8516C24.0699 21.6657 24.011 21.5137 23.9169 21.3983L23.8563 21.4477C23.939 21.5491 23.9939 21.6865 24.0187 21.8625L24.0961 21.8516ZM23.9998 22.4559C24.0931 22.2619 24.1254 22.0602 24.0961 21.8516L24.0187 21.8625C24.0458 22.0554 24.0162 22.2416 23.9293 22.4219L23.9998 22.4559ZM23.5386 22.9475C23.754 22.8108 23.9088 22.6471 23.9999 22.4557L23.9293 22.4221C23.8458 22.5975 23.7026 22.7509 23.4967 22.8814L23.5386 22.9475ZM23.2873 23.076C23.3792 23.0388 23.4631 22.9959 23.5388 22.9473L23.4965 22.8816C23.4254 22.9273 23.3459 22.968 23.258 23.0036L23.2873 23.076ZM23.1291 23.2198L23.1776 23.565L23.255 23.5541L23.2065 23.2089L23.1291 23.2198ZM23.0778 23.6974L22.5861 23.7665L22.597 23.8439L23.0887 23.7748L23.0778 23.6974ZM22.4537 23.6667L22.4092 23.3501L22.3318 23.361L22.3763 23.6776L22.4537 23.6667ZM21.8667 23.235C21.9802 23.2486 22.0946 23.2559 22.2099 23.2571L22.2106 23.1789C22.0982 23.1778 21.9867 23.1706 21.876 23.1573L21.8667 23.235ZM21.3057 23.0973C21.4653 23.1603 21.6522 23.206 21.8661 23.2349L21.8766 23.1574C21.6673 23.1291 21.4868 23.0847 21.3344 23.0246L21.3057 23.0973ZM21.3307 22.4085L21.1992 22.873L21.2745 22.8943L21.4059 22.4298L21.3307 22.4085ZM21.9881 22.3772C21.8495 22.352 21.7204 22.318 21.6007 22.2753L21.5744 22.3489C21.6985 22.3932 21.8317 22.4282 21.9741 22.4541L21.9881 22.3772ZM22.5905 22.3862C22.3957 22.4136 22.1947 22.4106 21.9874 22.3771L21.9749 22.4542C22.1895 22.4889 22.3983 22.4921 22.6014 22.4636L22.5905 22.3862ZM22.8981 22.3092C22.8245 22.3417 22.7224 22.3676 22.5905 22.3862L22.6014 22.4636C22.7368 22.4445 22.8467 22.4173 22.9296 22.3807L22.8981 22.3092ZM23.0438 22.1995C23.019 22.2359 22.9718 22.2734 22.8968 22.3098L22.931 22.3801C23.0116 22.341 23.0726 22.2961 23.1084 22.2435L23.0438 22.1995ZM23.0753 22.0706C23.0817 22.1165 23.0717 22.1588 23.0439 22.1994L23.1083 22.2436C23.1467 22.1876 23.162 22.1257 23.1527 22.0597L23.0753 22.0706ZM22.9637 21.9282C23.031 21.9592 23.0662 22.006 23.0753 22.0706L23.1527 22.0597C23.1396 21.9664 23.0855 21.8982 22.9963 21.8572L22.9637 21.9282ZM22.6808 21.8572C22.7964 21.8705 22.8904 21.8945 22.9637 21.9282L22.9963 21.8572C22.9132 21.819 22.8107 21.7934 22.6897 21.7796L22.6808 21.8572ZM22.2886 21.8222C22.4325 21.832 22.5632 21.8437 22.6808 21.8572L22.6897 21.7796C22.5707 21.7659 22.4388 21.7541 22.2939 21.7442L22.2886 21.8222ZM21.8526 21.7665C22.0006 21.7931 22.1458 21.8117 22.2884 21.8221L22.2941 21.7442C22.1544 21.7339 22.0119 21.7157 21.8665 21.6896L21.8526 21.7665ZM21.4418 21.6389C21.5692 21.6966 21.7061 21.7391 21.8524 21.7665L21.8667 21.6897C21.7262 21.6634 21.5953 21.6227 21.4741 21.5677L21.4418 21.6389ZM21.1079 21.376C21.1999 21.4888 21.3111 21.5764 21.4411 21.6386L21.4748 21.568C21.3553 21.5109 21.2533 21.4305 21.1685 21.3266L21.1079 21.376ZM20.9274 20.9128C20.954 21.1019 21.0133 21.2571 21.1076 21.3756L21.1688 21.3269C21.0854 21.2222 21.03 21.0813 21.0048 20.9019L20.9274 20.9128ZM21.018 20.3045C20.9274 20.495 20.8972 20.6982 20.9274 20.9128L21.0048 20.9019C20.9767 20.702 21.0047 20.5144 21.0886 20.3381L21.018 20.3045ZM21.4842 19.8121C21.2688 19.9487 21.1126 20.1125 21.0183 20.304L21.0884 20.3386C21.1751 20.1624 21.3201 20.0087 21.5261 19.8781L21.4842 19.8121ZM21.7221 19.6896C21.6359 19.7253 21.5566 19.7661 21.4842 19.8121L21.5261 19.8781C21.5943 19.8348 21.6696 19.796 21.752 19.7618L21.7221 19.6896ZM21.7467 19.1644L21.8018 19.5571L21.8793 19.5462L21.8241 19.1535L21.7467 19.1644ZM21.752 19.7618C21.8365 19.7267 21.8924 19.64 21.8793 19.5462L21.8018 19.5571C21.8096 19.6124 21.7767 19.6669 21.7221 19.6896L21.752 19.7618ZM22.599 19.4146C22.6128 19.5131 22.6978 19.5835 22.7949 19.5862L22.7971 19.5081C22.7357 19.5064 22.6846 19.4621 22.6764 19.4037L22.599 19.4146ZM21.3344 23.0246C21.285 23.0051 21.2589 22.9494 21.2745 22.8943L21.1992 22.873C21.1739 22.9627 21.2152 23.0616 21.3057 23.0973L21.3344 23.0246ZM23.1776 23.565C23.1866 23.6291 23.142 23.6884 23.0778 23.6974L23.0887 23.7748C23.1956 23.7598 23.27 23.661 23.255 23.5541L23.1776 23.565ZM23.258 23.0036C23.1727 23.0381 23.1158 23.1254 23.1291 23.2198L23.2065 23.2089C23.1987 23.1532 23.2321 23.0984 23.2873 23.076L23.258 23.0036ZM21.4059 22.4298C21.4253 22.3613 21.5031 22.3234 21.5744 22.3489L21.6007 22.2753C21.4911 22.2362 21.3637 22.2922 21.3307 22.4085L21.4059 22.4298ZM23.4696 19.6909C23.5225 19.7079 23.5527 19.7651 23.538 19.8226L23.6137 19.842C23.6377 19.7482 23.5893 19.6473 23.4936 19.6165L23.4696 19.6909ZM22.4155 18.952C22.4797 18.943 22.539 18.9877 22.548 19.0518L22.6254 19.0409C22.6104 18.934 22.5115 18.8596 22.4047 18.8746L22.4155 18.952ZM22.4092 23.3501C22.3953 23.2507 22.3089 23.1798 22.2106 23.1789L22.2099 23.2571C22.2716 23.2577 22.3235 23.302 22.3318 23.361L22.4092 23.3501ZM21.913 18.9437C21.8061 18.9587 21.7316 19.0575 21.7467 19.1644L21.8241 19.1535C21.8151 19.0894 21.8597 19.0301 21.9239 19.0211L21.913 18.9437ZM23.4186 20.2892C23.4014 20.3561 23.3289 20.3954 23.2592 20.3746L23.2369 20.4495C23.3455 20.482 23.4653 20.422 23.4943 20.3086L23.4186 20.2892ZM22.5861 23.7665C22.522 23.7755 22.4627 23.7308 22.4537 23.6667L22.3763 23.6776C22.3913 23.7845 22.4902 23.8589 22.597 23.8439L22.5861 23.7665Z" fill="black" mask="url(#path-9-outside-1_11_2196)"/>
<path d="M13.6491 21.3357C13.6491 21.3357 15.1658 20.7777 16.3286 20.4634C17.4915 20.1491 19.0378 19.8024 19.0378 19.8024" stroke="black" stroke-width="0.938015" stroke-linecap="round"/>
<path d="M12.0632 24.1345C12.0632 24.1345 13.1414 23.5965 15.3512 22.8999C17.561 22.2032 18.5465 22.0811 18.5465 22.0811" stroke="black" stroke-width="0.938015" stroke-linecap="round"/>
<path d="M15.5487 25.0696C15.5487 25.0696 16.2395 24.7699 17.2585 24.5059C18.2776 24.242 18.8653 24.1292 18.8653 24.1292" stroke="black" stroke-width="0.938015" stroke-linecap="round"/>
<path d="M12.3895 26.272C12.3895 26.272 12.7939 26.076 13.1408 25.9364C13.4876 25.7967 13.9186 25.6368 13.9186 25.6368" stroke="black" stroke-width="0.938015" stroke-linecap="round"/>
<path fill-rule="evenodd" clip-rule="evenodd" d="M30.7365 19.9402C31.8089 19.9867 32.6581 20.0556 33.128 20.099L33.3701 27.6004C32.1223 27.366 29.0324 26.8859 25.3508 27.0517C22.9516 27.1598 20.9332 27.4852 19.5127 27.784C18.8022 27.9335 18.2407 28.0764 17.8552 28.1825C17.6624 28.2356 17.5136 28.2795 17.4121 28.3104C17.3614 28.3258 17.3225 28.338 17.2958 28.3465L17.265 28.3564L17.2566 28.3591L17.2542 28.3599L17.2534 28.3602L17.2531 28.3603C17.253 28.3603 17.2529 28.3604 17.4005 28.8055L17.2529 28.3604C17.0071 28.4419 16.8738 28.7073 16.9554 28.9531C17.0369 29.199 17.3022 29.3322 17.548 29.2508L17.5481 29.2507L17.5492 29.2504L17.5549 29.2485L17.5802 29.2404C17.6032 29.2331 17.6384 29.222 17.6853 29.2077C17.7791 29.1792 17.9198 29.1377 18.1042 29.0869C18.4729 28.9854 19.0157 28.8471 19.7058 28.7019C21.0864 28.4115 23.0536 28.0942 25.393 27.9888C29.6256 27.7982 33.0588 28.4855 33.6603 28.615C34.0082 28.6899 34.335 28.4183 34.3235 28.0616L34.0544 19.7254C34.0463 19.4729 33.8591 19.2302 33.5677 19.1995C33.2981 19.1712 32.2243 19.0647 30.7365 19.0013V19.9402Z" fill="black"/>
<path d="M30.7455 19.9962C31.7811 20.0415 32.6067 20.1075 33.0807 20.1507L33.3198 27.5601C32.0371 27.322 28.9784 26.8569 25.3435 27.0206C22.9416 27.1288 20.9208 27.4546 19.4985 27.7538C18.7871 27.9034 18.2247 28.0466 17.8384 28.1529C17.6453 28.2061 17.4961 28.2501 17.3942 28.2811C17.3433 28.2966 17.3042 28.3089 17.2774 28.3174C17.2639 28.3217 17.2536 28.325 17.2463 28.3274L17.2378 28.3302L17.2342 28.3313C17.2341 28.3314 17.234 28.3314 17.3952 28.8177L17.234 28.3314C16.9655 28.4204 16.8199 28.7103 16.909 28.9789C16.998 29.2474 17.2878 29.3929 17.5563 29.304L17.5574 29.3036L17.563 29.3018C17.5682 29.3001 17.5766 29.2974 17.588 29.2937C17.6109 29.2865 17.6458 29.2755 17.6926 29.2613C17.786 29.2328 17.9264 29.1914 18.1104 29.1408C18.4783 29.0395 19.0203 28.9013 19.7094 28.7564C21.0881 28.4663 23.053 28.1494 25.3896 28.0442C29.5988 27.8546 33.0167 28.5344 33.6381 28.6677C34.0262 28.751 34.3735 28.4439 34.3612 28.0629L34.0926 19.7424C34.0837 19.4677 33.8803 19.2015 33.5609 19.168C33.2823 19.1388 32.2175 19.0338 30.7455 18.9707V19.9657L33.5075 19.6775L33.5074 19.6782L30.7455 19.9663V19.9962Z" fill="black"/>
<path d="M33.823 23.1707C34.9475 23.5212 35.8536 23.8351 36.3672 24.0183L34.0214 31.1758C33.0071 30.7151 30.6714 29.7838 27.9219 29.554C26.1072 29.4023 24.5655 29.413 23.4755 29.4619C22.9304 29.4863 22.4977 29.5203 22.1998 29.5484C22.0508 29.5625 21.9355 29.5751 21.8566 29.5842C21.8172 29.5888 21.7868 29.5925 21.766 29.5952C21.7555 29.5965 21.7474 29.5976 21.7418 29.5983L21.7351 29.5992L21.7331 29.5995L21.7324 29.5996L21.7322 29.5996C21.7321 29.5996 21.732 29.5996 21.8014 30.1072L21.732 29.5996C21.4517 29.638 21.2555 29.8963 21.2938 30.1766C21.3322 30.4569 21.5905 30.6531 21.8708 30.6147L21.8714 30.6146L21.8756 30.6141C21.8796 30.6136 21.886 30.6127 21.8947 30.6116C21.9122 30.6094 21.9391 30.6061 21.975 30.6019C22.0468 30.5936 22.1547 30.5818 22.296 30.5685C22.5786 30.5418 22.9944 30.5091 23.5214 30.4854C24.5758 30.4382 26.073 30.4276 27.8365 30.575C30.9505 30.8353 33.5205 32.0589 34.0072 32.3034C34.3422 32.4718 34.7331 32.2939 34.8444 31.9543L37.4698 23.9436C37.5618 23.663 37.4373 23.3182 37.1119 23.1983C36.8168 23.0895 35.6672 22.6718 34.1054 22.1855L33.823 23.1707Z" fill="black"/>
<path d="M14.8202 18.7476C14.8202 18.7476 17.6551 17.7456 21.8819 17.1516C25.813 16.5991 29.8118 16.7829 30.3522 16.8113C30.3894 16.8132 30.4177 16.8412 30.4229 16.878L31.5889 25.1747C31.5958 25.2237 31.558 25.2669 31.5086 25.2643C30.862 25.2303 26.9687 25.0585 23.0702 25.6064C18.8011 26.2064 14.7758 27.6343 14.7758 27.6343" stroke="black" stroke-width="0.93791" stroke-linecap="round"/>
<path d="M8.0547 37.2138C7.8772 36.9859 7.73924 36.7429 7.64081 36.4847C7.54517 36.2243 7.50114 35.9929 7.50872 35.7906L8.07587 35.6502C8.07507 35.8384 8.1112 36.0424 8.18427 36.2623C8.25733 36.4822 8.36421 36.6825 8.50491 36.8632C8.62396 37.016 8.73696 37.1267 8.84391 37.1952C8.95085 37.2637 9.04943 37.2986 9.13965 37.2998C9.23264 37.2988 9.31527 37.2701 9.38753 37.2138C9.47646 37.1446 9.52243 37.0574 9.52545 36.9524C9.53124 36.8452 9.50938 36.7282 9.45986 36.6016C9.41529 36.4756 9.35819 36.3392 9.28858 36.1925C9.22112 36.0486 9.15676 35.9 9.09548 35.7468C9.03915 35.5942 9.00011 35.4438 8.97839 35.2955C8.9616 35.1479 8.97834 35.0031 9.0286 34.8613C9.07886 34.7194 9.18181 34.5879 9.33744 34.4667C9.49585 34.3433 9.67283 34.2724 9.86838 34.254C10.0689 34.2363 10.2751 34.2833 10.4872 34.395C10.7041 34.5073 10.9165 34.6968 11.1243 34.9636C11.2607 35.1387 11.3737 35.3297 11.4635 35.5367C11.5532 35.7436 11.6062 35.9434 11.6224 36.1362L11.0682 36.2932C11.0443 36.102 10.9963 35.9229 10.9242 35.7558C10.8549 35.5865 10.7704 35.438 10.6708 35.3101C10.554 35.16 10.4407 35.0518 10.3309 34.9855C10.2234 34.9219 10.1231 34.8906 10.0301 34.8916C9.93927 34.8954 9.85633 34.9265 9.7813 34.9849C9.69237 35.0542 9.64392 35.1411 9.63596 35.2455C9.63294 35.3505 9.65511 35.465 9.70247 35.5888C9.75199 35.7155 9.81017 35.8532 9.877 36.0021C9.94662 36.1488 10.011 36.2974 10.0701 36.4478C10.1314 36.601 10.1718 36.7503 10.1914 36.8958C10.2131 37.0441 10.1977 37.1878 10.1453 37.3269C10.0951 37.4687 9.99349 37.5992 9.84064 37.7182C9.68501 37.8394 9.50695 37.9089 9.30645 37.9267C9.1109 37.945 8.90464 37.898 8.68767 37.7857C8.47349 37.6713 8.2625 37.4806 8.0547 37.2138Z" fill="black"/>
<path d="M10.3177 40.0342L13.8613 38.0609L14.4038 38.4647L13.5348 42.4288L12.9584 41.9997L13.8004 38.4701L14.0208 38.6342L10.8857 40.457L10.3177 40.0342ZM11.4434 39.805L11.9135 39.4831L13.5158 40.6756L13.3423 41.2184L11.4434 39.805Z" fill="black"/>
<path d="M15.7201 43.856L16.8884 40.3466L17.4248 40.5252L18.1061 43.5977L17.8253 43.5043L20.1872 41.4448L20.7237 41.6233L19.5604 45.1344L18.9437 44.9291L19.7849 42.3857L19.9152 42.4291L17.9192 44.1425L17.6284 44.0457L17.0375 41.4711L17.1879 41.5211L16.3418 44.0629L15.7201 43.856Z" fill="black"/>
<path d="M23.189 43.6102L25.0275 43.6457L25.0166 44.2109L23.1781 44.1754L23.189 43.6102ZM23.2113 45.1961L25.298 45.2363L25.2869 45.8122L22.5134 45.7587L22.5848 42.0606L25.2844 42.1127L25.2732 42.6885L23.2604 42.6497L23.2113 45.1961Z" fill="black"/>
<path d="M30.8756 45.0929L29.4093 41.6971L30.8937 41.0562C31.2624 40.897 31.6165 40.8285 31.9561 40.8507C32.2957 40.8729 32.5975 40.9766 32.8617 41.1618C33.1258 41.3471 33.3319 41.6111 33.48 41.9539C33.6266 42.2935 33.6774 42.6245 33.6325 42.947C33.5862 43.2663 33.4547 43.5571 33.238 43.8195C33.0214 44.0819 32.7287 44.2927 32.36 44.4519L30.8756 45.0929ZM31.2758 44.2869L32.1005 43.9309C32.356 43.8205 32.5549 43.6771 32.6974 43.5005C32.8431 43.3224 32.9283 43.1245 32.9532 42.9065C32.9812 42.6872 32.945 42.4611 32.8445 42.2283C32.7425 41.9922 32.6028 41.8108 32.4253 41.6841C32.2497 41.5527 32.0471 41.4791 31.8176 41.463C31.5914 41.4456 31.3505 41.492 31.095 41.6024L30.2704 41.9585L31.2758 44.2869Z" fill="black"/>
<path d="M36.2256 42.6871L35.0947 38.7919L35.6096 38.3534L39.2789 40.0868L38.7318 40.5527L35.4799 38.9428L35.6891 38.7646L36.7647 42.228L36.2256 42.6871ZM36.2539 41.5386L36.0453 41.0084L37.5659 39.7134L38.0561 40.0038L36.2539 41.5386Z" fill="black"/>
<path d="M41.515 37.5531L40.3006 36.736L40.7369 36.8448L37.6351 36.6937L38.0451 36.0843L40.5403 36.2094L40.3102 36.5513L39.2605 34.2782L39.6381 33.7171L40.9463 36.5336L40.6841 36.1661L41.8984 36.9832L41.515 37.5531Z" fill="black"/>
<path fill-rule="evenodd" clip-rule="evenodd" d="M5.71094 25.4515C5.71094 22.1331 6.56084 19.0132 8.05485 16.2976L8.42017 16.6626C7.00794 19.2776 6.20631 22.2709 6.20631 25.4515C6.20631 27.9659 6.70732 30.3633 7.61496 32.5493L7.23717 32.9286C6.2548 30.6335 5.71094 28.106 5.71094 25.4515ZM42.26 32.8355C43.2174 30.5652 43.7467 28.0701 43.7467 25.4515C43.7467 22.3747 43.016 19.4686 41.7188 16.8972L41.3388 17.2452C42.5632 19.7186 43.2513 22.5047 43.2513 25.4515C43.2513 27.9387 42.761 30.3114 41.8719 32.4783L42.26 32.8355Z" fill="black"/>
<path d="M12.5189 13.891C12.3169 14.0974 12.0982 14.2555 11.8627 14.3652C11.6272 14.4699 11.3862 14.5273 11.1397 14.5375C10.8907 14.5452 10.6486 14.503 10.4135 14.4109C10.1783 14.3188 9.96253 14.1767 9.76614 13.9845C9.56974 13.7923 9.42295 13.5797 9.32575 13.3466C9.22855 13.1135 9.18234 12.8736 9.18712 12.627C9.19185 12.3753 9.24648 12.1306 9.351 11.8928C9.45301 11.6526 9.60501 11.4292 9.80703 11.2228C10.0263 10.9987 10.2599 10.833 10.5078 10.7256C10.7582 10.6158 11.0143 10.5682 11.276 10.5828L11.2751 11.1881C11.0709 11.1903 10.8857 11.2284 10.7196 11.3025C10.5535 11.3716 10.4002 11.4779 10.2598 11.6214C10.1243 11.7599 10.0213 11.9104 9.95081 12.0731C9.88034 12.2358 9.84478 12.4006 9.8441 12.5675C9.84343 12.7344 9.87634 12.8972 9.94284 13.0559C10.0118 13.2121 10.1143 13.3567 10.2502 13.4897C10.3837 13.6203 10.5292 13.7184 10.6869 13.7839C10.847 13.8469 11.0117 13.8775 11.1811 13.8757C11.3479 13.8714 11.5107 13.8335 11.6693 13.762C11.828 13.6905 11.9763 13.5843 12.1142 13.4433C12.2424 13.3123 12.3454 13.1667 12.4234 13.0065C12.5013 12.8412 12.5453 12.6551 12.5555 12.4483L13.1953 12.5272C13.1706 12.7741 13.0973 13.0178 12.9754 13.2583C12.8534 13.4937 12.7012 13.7047 12.5189 13.891ZM12.6766 12.929L11.6871 11.9608L12.1416 11.4962L13.1953 12.5272L12.6766 12.929Z" fill="black"/>
<path d="M14.6326 9.13012L16.2328 8.22418L16.5114 8.71618L14.9112 9.62212L14.6326 9.13012ZM15.4596 10.4835L17.2759 9.45524L17.5596 9.95643L15.1456 11.3231L13.3233 8.10445L15.673 6.77418L15.9567 7.27538L14.2048 8.26722L15.4596 10.4835Z" fill="black"/>
<path d="M19.8747 8.95875L19.0593 5.94977L17.8761 6.2704L17.724 5.70941L20.7534 4.88846L20.9055 5.44946L19.7223 5.7701L20.5377 8.77909L19.8747 8.95875Z" fill="black"/>
<path d="M25.8789 7.91714L26.3902 4.2539L27.8973 4.46426C28.2218 4.50955 28.4918 4.60059 28.7075 4.73739C28.9266 4.87468 29.0854 5.04978 29.1837 5.26268C29.282 5.47558 29.3124 5.71635 29.275 5.98499C29.2375 6.25363 29.1423 6.47687 28.9894 6.65471C28.8365 6.83255 28.6359 6.9575 28.3876 7.02953C28.1427 7.10206 27.858 7.11568 27.5336 7.07039L26.4032 6.91263L26.7513 6.63576L26.5592 8.0121L25.8789 7.91714ZM26.7411 6.70903L26.4836 6.33697L27.5825 6.49036C27.8826 6.53224 28.1164 6.50085 28.2839 6.39619C28.4554 6.28853 28.5573 6.11957 28.5894 5.88931C28.622 5.65556 28.5704 5.46517 28.4344 5.31815C28.3019 5.17161 28.0856 5.07741 27.7856 5.03553L26.6866 4.88214L27.0369 4.58958L26.7411 6.70903Z" fill="black"/>
<path d="M30.2381 8.43227L33.2729 5.74132L33.8897 6.01866L33.8959 10.0768L33.2405 9.78215L33.3017 6.15401L33.5523 6.26669L30.8839 8.72261L30.2381 8.43227ZM31.2879 7.96573L31.6776 7.55L33.4992 8.36903L33.4469 8.93643L31.2879 7.96573Z" fill="black"/>
<path d="M35.4051 10.9898L37.6352 8.0389L38.1832 8.45305L35.9532 11.4039L35.4051 10.9898Z" fill="black"/>
<path d="M37.5854 12.5055L40.4274 10.1383L41.4622 11.3806C41.7193 11.6892 41.8852 12.0095 41.96 12.3414C42.0348 12.6734 42.0207 12.9923 41.9178 13.298C41.8149 13.6038 41.62 13.8762 41.3331 14.1152C41.0489 14.3519 40.7458 14.4944 40.4237 14.5425C40.1044 14.5885 39.7882 14.5447 39.4753 14.4111C39.1623 14.2775 38.8773 14.0564 38.6203 13.7479L37.5854 12.5055ZM38.4717 12.6613L39.0466 13.3515C39.2247 13.5654 39.4186 13.7156 39.6283 13.8022C39.8402 13.8916 40.0543 13.9173 40.2703 13.8795C40.4886 13.8444 40.6952 13.7456 40.8901 13.5833C41.0877 13.4187 41.2221 13.2334 41.2934 13.0273C41.3697 12.8216 41.383 12.6065 41.3335 12.3819C41.2862 12.16 41.1735 11.9421 40.9954 11.7283L40.4205 11.0381L38.4717 12.6613Z" fill="black"/>
<path d="M8.5547 37.4326C8.3772 37.2047 8.23924 36.9616 8.14081 36.7034C8.04517 36.443 8.00114 36.2117 8.00872 36.0093L8.57587 35.869C8.57507 36.0571 8.6112 36.2611 8.68427 36.4811C8.75733 36.701 8.86421 36.9013 9.00491 37.0819C9.12396 37.2348 9.23696 37.3455 9.34391 37.414C9.45085 37.4825 9.54943 37.5173 9.63965 37.5185C9.73264 37.5175 9.81527 37.4889 9.88753 37.4326C9.97646 37.3633 10.0224 37.2762 10.0254 37.1711C10.0312 37.0639 10.0094 36.947 9.95986 36.8204C9.91529 36.6943 9.85819 36.558 9.78858 36.4113C9.72112 36.2673 9.65676 36.1188 9.59548 35.9656C9.53915 35.813 9.50011 35.6626 9.47839 35.5143C9.4616 35.3666 9.47834 35.2218 9.5286 35.08C9.57886 34.9382 9.68181 34.8066 9.83744 34.6854C9.99585 34.562 10.1728 34.4912 10.3684 34.4728C10.5689 34.455 10.7751 34.502 10.9872 34.6137C11.2041 34.726 11.4165 34.9156 11.6243 35.1824C11.7607 35.3575 11.8737 35.5485 11.9635 35.7554C12.0532 35.9623 12.1062 36.1622 12.1224 36.355L11.5682 36.512C11.5443 36.3208 11.4963 36.1416 11.4242 35.9745C11.3549 35.8053 11.2704 35.6567 11.1708 35.5289C11.054 35.3788 10.9407 35.2706 10.8309 35.2042C10.7234 35.1407 10.6231 35.1094 10.5301 35.1104C10.4393 35.1141 10.3563 35.1452 10.2813 35.2037C10.1924 35.273 10.1439 35.3598 10.136 35.4642C10.1329 35.5693 10.1551 35.6837 10.2025 35.8076C10.252 35.9342 10.3102 36.072 10.377 36.2208C10.4466 36.3676 10.511 36.5161 10.5701 36.6665C10.6314 36.8197 10.6718 36.9691 10.6914 37.1146C10.7131 37.2629 10.6977 37.4065 10.6453 37.5456C10.5951 37.6875 10.4935 37.8179 10.3406 37.937C10.185 38.0582 10.007 38.1277 9.80645 38.1454C9.6109 38.1638 9.40464 38.1168 9.18767 38.0045C8.97349 37.89 8.7625 37.6994 8.5547 37.4326Z" fill="black"/>
<path d="M10.8177 40.253L14.3613 38.2797L14.9038 38.6835L14.0348 42.6475L13.4584 42.2185L14.3004 38.6889L14.5208 38.8529L11.3857 40.6757L10.8177 40.253ZM11.9434 40.0238L12.4135 39.7018L14.0158 40.8944L13.8423 41.4372L11.9434 40.0238Z" fill="black"/>
<path d="M16.2201 44.0747L17.3884 40.5653L17.9248 40.7439L18.6061 43.8165L18.3253 43.723L20.6872 41.6635L21.2237 41.8421L20.0604 45.3532L19.4437 45.1479L20.2849 42.6044L20.4152 42.6478L18.4192 44.3613L18.1284 44.2645L17.5375 41.6898L17.6879 41.7399L16.8418 44.2817L16.2201 44.0747Z" fill="black"/>
<path d="M23.689 43.8289L25.5275 43.8644L25.5166 44.4297L23.6781 44.3942L23.689 43.8289ZM23.7113 45.4148L25.798 45.4551L25.7869 46.0309L23.0134 45.9774L23.0848 42.2793L25.7844 42.3315L25.7732 42.9073L23.7604 42.8684L23.7113 45.4148Z" fill="black"/>
<path d="M31.3756 45.3116L29.9093 41.9159L31.3937 41.2749C31.7624 41.1157 32.1165 41.0472 32.4561 41.0695C32.7957 41.0917 33.0975 41.1954 33.3617 41.3806C33.6258 41.5658 33.8319 41.8298 33.98 42.1726C34.1266 42.5122 34.1774 42.8433 34.1325 43.1658C34.0862 43.4851 33.9547 43.7759 33.738 44.0383C33.5214 44.3007 33.2287 44.5115 32.86 44.6706L31.3756 45.3116ZM31.7758 44.5057L32.6005 44.1496C32.856 44.0393 33.0549 43.8958 33.1974 43.7192C33.3431 43.5412 33.4283 43.3432 33.4532 43.1253C33.4812 42.906 33.445 42.6799 33.3445 42.447C33.2425 42.211 33.1028 42.0296 32.9253 41.9028C32.7497 41.7715 32.5471 41.6978 32.3176 41.6818C32.0914 41.6644 31.8505 41.7108 31.595 41.8211L30.7704 42.1772L31.7758 44.5057Z" fill="black"/>
<path d="M36.7256 42.9058L35.5947 39.0107L36.1096 38.5722L39.7789 40.3056L39.2318 40.7715L35.9799 39.1615L36.1891 38.9834L37.2647 42.4468L36.7256 42.9058ZM36.7539 41.7574L36.5453 41.2271L38.0659 39.9321L38.5561 40.2226L36.7539 41.7574Z" fill="black"/>
<path d="M42.015 37.7718L40.8006 36.9547L41.2369 37.0636L38.1351 36.9124L38.5451 36.3031L41.0403 36.4282L40.8102 36.7701L39.7605 34.4969L40.1381 33.9358L41.4463 36.7523L41.1841 36.3848L42.3984 37.2019L42.015 37.7718Z" fill="black"/>
<path fill-rule="evenodd" clip-rule="evenodd" d="M6.21094 25.6702C6.21094 22.3518 7.06084 19.2319 8.55485 16.5164L8.92017 16.8814C7.50794 19.4964 6.70631 22.4897 6.70631 25.6702C6.70631 28.1846 7.20732 30.582 8.11496 32.768L7.73717 33.1474C6.7548 30.8522 6.21094 28.3247 6.21094 25.6702ZM42.76 33.0542C43.7174 30.7839 44.2467 28.2889 44.2467 25.6702C44.2467 22.5935 43.516 19.6874 42.2188 17.116L41.8388 17.464C43.0632 19.9374 43.7513 22.7234 43.7513 25.6702C43.7513 28.1574 43.261 30.5302 42.3719 32.6971L42.76 33.0542Z" fill="black"/>
</svg>
