<svg width="18" height="16" viewBox="0 0 18 16" fill="none" xmlns="http://www.w3.org/2000/svg">
<mask id="path-1-inside-1_11_416" fill="white">
<path d="M16.6074 1.41703C15.679 0.472342 14.4622 0 13.2452 0C12.0284 0 10.8116 0.472342 9.8832 1.41703L9 2.31572L8.1168 1.41703C7.1884 0.472342 5.9716 0 4.7548 0C3.5378 0 2.321 0.472342 1.3926 1.41703C-0.4642 3.30639 -0.4642 6.3698 1.3926 8.25917L9 16L16.6074 8.25917C18.4642 6.3698 18.4642 3.30639 16.6074 1.41703Z"/>
</mask>
<path d="M16.6074 1.41703C15.679 0.472342 14.4622 0 13.2452 0C12.0284 0 10.8116 0.472342 9.8832 1.41703L9 2.31572L8.1168 1.41703C7.1884 0.472342 5.9716 0 4.7548 0C3.5378 0 2.321 0.472342 1.3926 1.41703C-0.4642 3.30639 -0.4642 6.3698 1.3926 8.25917L9 16L16.6074 8.25917C18.4642 6.3698 18.4642 3.30639 16.6074 1.41703Z" fill="black"/>
<path d="M9.8832 1.41703L8.81336 0.365626L8.81336 0.365627L9.8832 1.41703ZM9 2.31572L7.93016 3.36712L9 4.45572L10.0698 3.36712L9 2.31572ZM8.1168 1.41703L9.18664 0.365627L9.18664 0.365626L8.1168 1.41703ZM1.3926 8.25917L2.46244 7.20777L1.3926 8.25917ZM9 16L7.93016 17.0514L9 18.14L10.0698 17.0514L9 16ZM16.6074 8.25917L17.6772 9.31057L16.6074 8.25917ZM17.6772 0.365626C16.4582 -0.874795 14.8521 -1.5 13.2452 -1.5V1.5C14.0723 1.5 14.8998 1.81948 15.5376 2.46843L17.6772 0.365626ZM13.2452 -1.5C11.6385 -1.5 10.0324 -0.874772 8.81336 0.365626L10.953 2.46843C11.5908 1.81946 12.4183 1.5 13.2452 1.5V-1.5ZM8.81336 0.365627L7.93016 1.26432L10.0698 3.36712L10.953 2.46843L8.81336 0.365627ZM10.0698 1.26432L9.18664 0.365627L7.04696 2.46843L7.93016 3.36712L10.0698 1.26432ZM9.18664 0.365626C7.96762 -0.874772 6.36151 -1.5 4.7548 -1.5V1.5C5.58169 1.5 6.40918 1.81946 7.04696 2.46843L9.18664 0.365626ZM4.7548 -1.5C3.14792 -1.5 1.5418 -0.874795 0.322759 0.365626L2.46244 2.46843C3.1002 1.81948 3.92768 1.5 4.7548 1.5V-1.5ZM0.322759 0.365626C-2.10759 2.8386 -2.10759 6.83759 0.322759 9.31057L2.46244 7.20777C1.17919 5.902 1.17919 3.77419 2.46244 2.46843L0.322759 0.365626ZM0.322759 9.31057L7.93016 17.0514L10.0698 14.9486L2.46244 7.20777L0.322759 9.31057ZM10.0698 17.0514L17.6772 9.31057L15.5376 7.20777L7.93016 14.9486L10.0698 17.0514ZM17.6772 9.31057C20.1076 6.83759 20.1076 2.8386 17.6772 0.365626L15.5376 2.46843C16.8208 3.77419 16.8208 5.902 15.5376 7.20777L17.6772 9.31057Z" fill="white" mask="url(#path-1-inside-1_11_416)"/>
<path fill-rule="evenodd" clip-rule="evenodd" d="M5.04334 3.53488C4.77369 3.56619 4.4124 3.67054 4.06669 3.97848C3.70675 4.2991 3.54698 4.61784 3.47572 4.85149C3.43992 4.96889 3.42632 5.0654 3.42148 5.1303C3.41906 5.16272 3.41884 5.18709 3.41909 5.20205C3.41922 5.20953 3.41947 5.21463 3.41962 5.21719C3.41967 5.218 3.4197 5.21856 3.41973 5.21885C3.43247 5.36205 3.30606 5.48733 3.13642 5.49911C2.96606 5.51093 2.8166 5.40381 2.80261 5.25984L3.11108 5.23842C2.80261 5.25984 2.8026 5.25971 2.80258 5.25957L2.80256 5.25929L2.8025 5.25867L2.80237 5.25724C2.80228 5.25619 2.80217 5.25496 2.80206 5.25356C2.80184 5.25074 2.8016 5.24722 2.80135 5.24301C2.80086 5.23458 2.80037 5.22339 2.80014 5.20962C2.79966 5.1821 2.80019 5.14418 2.80368 5.09738C2.81066 5.00387 2.82952 4.87427 2.87629 4.72094C2.97016 4.41312 3.17592 4.01188 3.61761 3.61843C4.07354 3.21231 4.5707 3.06172 4.95907 3.01662C5.15134 2.9943 5.31526 2.99791 5.43312 3.00748C5.49218 3.01228 5.54013 3.01861 5.57486 3.02408C5.59224 3.02682 5.60637 3.02935 5.61697 3.03138C5.62227 3.0324 5.6267 3.03329 5.63022 3.03402C5.63094 3.03417 5.63162 3.03431 5.63226 3.03445C5.6332 3.03464 5.63405 3.03483 5.63482 3.03499L5.63661 3.03538L5.63737 3.03555L5.63772 3.03563C5.63788 3.03566 5.63804 3.0357 5.56062 3.28352L5.63805 3.0357C5.80332 3.07257 5.90193 3.21569 5.8583 3.35536C5.81486 3.49441 5.64683 3.57761 5.48227 3.54198C5.4819 3.54191 5.4812 3.54177 5.48015 3.54157C5.47696 3.54096 5.47064 3.5398 5.46143 3.53835C5.44297 3.53544 5.41316 3.5314 5.37389 3.52821C5.29509 3.52181 5.18009 3.519 5.04334 3.53488ZM5.48069 3.54164C5.48063 3.54163 5.48056 3.54161 5.4805 3.5416C5.48034 3.54156 5.48019 3.54153 5.48003 3.54149L5.55904 3.2886C5.48003 3.54149 5.48018 3.54153 5.48033 3.54156M5.48069 3.54164L5.48062 3.54162L5.4805 3.5416" fill="white"/>
<path d="M5.4805 3.5416C5.48056 3.54161 5.48063 3.54163 5.48069 3.54164M5.4805 3.5416C5.48034 3.54156 5.48019 3.54153 5.48003 3.54149L5.55904 3.2886C5.48003 3.54149 5.48018 3.54153 5.48033 3.54156L5.48069 3.54164M5.4805 3.5416L5.48062 3.54162L5.48069 3.54164M5.4805 3.5416L5.48069 3.54164M4.06669 3.97848C4.4124 3.67054 4.77369 3.56619 5.04334 3.53488C5.18009 3.519 5.29509 3.52181 5.37389 3.52821C5.41316 3.5314 5.44297 3.53544 5.46143 3.53835C5.47064 3.5398 5.47696 3.54096 5.48015 3.54157C5.4812 3.54177 5.4819 3.54191 5.48227 3.54198C5.64683 3.57761 5.81486 3.49441 5.8583 3.35536C5.90193 3.21569 5.80332 3.07257 5.63805 3.0357L5.56062 3.28352C5.63804 3.0357 5.63788 3.03566 5.63772 3.03563L5.63737 3.03555L5.63661 3.03538L5.63482 3.03499C5.63405 3.03483 5.6332 3.03464 5.63226 3.03445C5.63162 3.03431 5.63094 3.03417 5.63022 3.03402C5.6267 3.03329 5.62227 3.0324 5.61697 3.03138C5.60637 3.02935 5.59224 3.02682 5.57486 3.02408C5.54013 3.01861 5.49218 3.01228 5.43312 3.00748C5.31526 2.99791 5.15134 2.9943 4.95907 3.01662C4.5707 3.06172 4.07354 3.21231 3.61761 3.61843C3.17592 4.01188 2.97016 4.41312 2.87629 4.72094C2.82952 4.87427 2.81066 5.00387 2.80368 5.09738C2.80019 5.14418 2.79966 5.1821 2.80014 5.20962C2.80037 5.22339 2.80086 5.23458 2.80135 5.24301C2.8016 5.24722 2.80184 5.25074 2.80206 5.25356C2.80217 5.25496 2.80228 5.25619 2.80237 5.25724L2.8025 5.25867L2.80256 5.25929L2.80258 5.25957C2.8026 5.25971 2.80261 5.25984 3.11108 5.23842L2.80261 5.25984C2.8166 5.40381 2.96606 5.51093 3.13642 5.49911C3.30606 5.48733 3.43247 5.36205 3.41972 5.21885C3.4197 5.21856 3.41967 5.218 3.41962 5.21719C3.41947 5.21463 3.41922 5.20953 3.41909 5.20205C3.41884 5.18709 3.41906 5.16272 3.42148 5.1303C3.42632 5.0654 3.43992 4.96889 3.47572 4.85149C3.54698 4.61784 3.70675 4.2991 4.06669 3.97848Z" stroke="white" stroke-width="0.714988" stroke-linecap="round"/>
</svg>
