<svg width="194" height="37" viewBox="0 0 194 37" fill="none" xmlns="http://www.w3.org/2000/svg">
<path d="M184.556 28.6618C189.537 28.6618 193.03 26.3425 193.03 22.2035C193.03 18.8137 191.03 16.9582 185.486 15.8521C182.73 15.3169 182.099 14.8887 182.099 14.0681C182.099 13.2474 182.73 12.7478 184.191 12.7478C186.383 12.7478 188.673 13.3901 190.499 14.3535L192.358 10.1074C190.466 8.89423 187.046 8.07355 184.49 8.07355C179.841 8.07355 176.741 10.3215 176.741 14.4248C176.741 17.7789 178.679 19.4917 184.025 20.4194C186.846 20.9189 187.743 21.347 187.743 22.3818C187.743 23.5951 186.615 23.9518 184.888 23.9518C182.564 23.9518 180.34 23.3809 178.081 22.1677L176.256 26.4139C178.38 27.627 181.336 28.6618 184.556 28.6618Z" fill="white"/>
<path d="M103.112 28.6618C108.093 28.6618 111.586 26.3425 111.586 22.2035C111.586 18.8137 109.587 16.9582 104.042 15.8521C101.286 15.3169 100.656 14.8887 100.656 14.0681C100.656 13.2474 101.286 12.7478 102.747 12.7478C104.939 12.7478 107.23 13.3901 109.056 14.3535L110.915 10.1074C109.023 8.89423 105.603 8.07355 103.046 8.07355C98.3977 8.07355 95.2981 10.3215 95.2981 14.4248C95.2981 17.7789 97.2357 19.4917 102.581 20.4194C105.403 20.9189 106.3 21.347 106.3 22.3818C106.3 23.5951 105.171 23.9518 103.444 23.9518C101.12 23.9518 98.8958 23.3809 96.638 22.1677L94.8119 26.4139C96.9368 27.627 99.8919 28.6618 103.112 28.6618Z" fill="white"/>
<path d="M25.4056 6.37214C27.151 6.37214 28.5659 4.94569 28.5659 3.18607C28.5659 1.42645 27.151 0 25.4056 0C23.6601 0 22.2452 1.42645 22.2452 3.18607C22.2452 4.94569 23.6601 6.37214 25.4056 6.37214Z" fill="white"/>
<path d="M28.2026 8.59683H22.6112V28.4486H28.2026V8.59683Z" fill="white"/>
<path d="M57.4397 20.2407C57.751 22.4042 59.5826 23.8632 61.9309 23.8632C63.4842 23.8632 64.4877 23.2803 65.4185 22.0782H71.2941C69.4625 26.2342 65.9716 28.6646 61.9309 28.6646C60.5966 28.6646 59.2755 28.403 58.0429 27.8949C56.8105 27.387 55.6908 26.6422 54.7479 25.7036C53.8052 24.7649 53.0577 23.6506 52.5483 22.4246C52.0389 21.1984 51.7776 19.8845 51.7793 18.5578C51.7793 13.0616 56.2009 8.32273 61.8347 8.32273C67.5679 8.32273 71.9565 12.8212 71.9565 18.7291C71.9629 19.2364 71.9162 19.7429 71.8173 20.2407H57.4397ZM66.2134 16.3943C65.7662 14.4184 64.0373 13.1308 61.8282 13.1308C59.7547 13.1308 57.9563 14.3657 57.5224 16.3943H66.2134Z" fill="white"/>
<path d="M6.50767 25.3791C7.33774 27.5205 8.53302 28.4485 10.4587 28.4485C12.3513 28.4485 13.5798 27.5205 14.3767 25.3434L20.9071 8.59683H15.0726L10.4535 21.7386L5.83453 8.59683H0L6.50767 25.3791Z" fill="white"/>
<path fill-rule="evenodd" clip-rule="evenodd" d="M143.796 28.6646C149.368 28.6646 153.885 24.111 153.885 18.4937C153.885 12.8764 149.368 8.32273 143.796 8.32273C138.224 8.32273 133.707 12.8764 133.707 18.4937C133.707 24.111 138.224 28.6646 143.796 28.6646ZM143.796 23.0277C146.279 23.0277 148.293 20.9977 148.293 18.4937C148.293 15.9897 146.279 13.9597 143.796 13.9597C141.312 13.9597 139.298 15.9897 139.298 18.4937C139.298 20.9977 141.312 23.0277 143.796 23.0277Z" fill="white"/>
<path fill-rule="evenodd" clip-rule="evenodd" d="M44.4864 0H50.0779V18.5037C50.0779 24.121 45.5609 28.6747 39.989 28.6747C34.417 28.6747 29.9001 24.121 29.9001 18.5037C29.9001 12.8865 34.417 8.3328 39.989 8.3328C41.6051 8.3328 43.1323 8.71575 44.4864 9.39691V0ZM39.989 23.0377C42.4729 23.0377 44.4864 21.0079 44.4864 18.5037C44.4864 15.9996 42.4729 13.9698 39.989 13.9698C37.5051 13.9698 35.4916 15.9996 35.4916 18.5037C35.4916 21.0079 37.5051 23.0377 39.989 23.0377Z" fill="white"/>
<path d="M119.006 9.51226V0H113.527V28.4296H118.998V17.8911C118.998 15.7253 120.739 13.9697 122.887 13.9697C125.036 13.9697 126.777 15.7253 126.777 17.8911V28.4296H132.287V16.453C132.287 11.2738 127.752 8.28398 123.29 8.28398C121.793 8.28398 120.366 8.5822 119.006 9.51226Z" fill="white"/>
<path fill-rule="evenodd" clip-rule="evenodd" d="M160.936 36.9974H155.344V18.4937C155.344 12.8764 159.861 8.32273 165.433 8.32273C171.005 8.32273 175.522 12.8764 175.522 18.4937C175.522 24.111 171.005 28.6646 165.433 28.6646C163.817 28.6646 162.289 28.2816 160.936 27.6005V36.9974ZM165.433 13.7145C162.949 13.7145 160.936 15.7445 160.936 18.2485C160.936 20.7527 162.949 22.7826 165.433 22.7826C167.917 22.7826 169.93 20.7527 169.93 18.2485C169.93 15.7445 167.917 13.7145 165.433 13.7145Z" fill="white"/>
<path fill-rule="evenodd" clip-rule="evenodd" d="M83.9893 28.4881C89.5062 28.4881 93.9786 24.0158 93.9786 18.4988C93.9786 12.9819 89.5062 8.50952 83.9893 8.50952C78.4724 8.50952 74 12.9819 74 18.4988C74 24.0158 78.4724 28.4881 83.9893 28.4881ZM89.7681 18.4744C89.7681 19.1126 89.1197 20.0372 88.0267 20.5414L81.6086 23.8202C80.7066 24.281 79.6362 23.6259 79.6362 22.6129L79.6362 21.6305C79.6362 21.1319 79.9098 20.6736 80.3486 20.4371L83.9838 18.4776L80.4105 16.7813C79.9375 16.5568 79.6361 16.08 79.6361 15.5565L79.6362 14.3235C79.6362 13.315 80.698 12.6596 81.5995 13.1116L88.185 16.4137C89.2962 16.8978 89.7681 17.8362 89.7681 18.4744Z" fill="white"/>
</svg>
