<svg width="32" height="32" viewBox="0 0 32 32" fill="none" xmlns="http://www.w3.org/2000/svg">
<path d="M32 16C32 7.16344 24.8366 0 16 0C7.16345 0 0 7.16344 0 16C0 24.8366 7.16345 32 16 32C24.8366 32 32 24.8366 32 16Z" fill="white"/>
<path d="M26.0749 12.6845C25.9489 11.4691 25.678 10.1255 24.6807 9.41948C23.9083 8.87194 22.8931 8.8517 21.9453 8.85282C19.9418 8.85282 17.9371 8.8562 15.9336 8.85732C14.0066 8.85957 12.0795 8.86069 10.1524 8.86294C9.34743 8.86294 8.56491 8.8011 7.81725 9.14964C7.17527 9.4487 6.67271 10.0176 6.37027 10.6506C5.9509 11.5309 5.86321 12.5282 5.81262 13.5018C5.7193 15.2749 5.72942 17.0524 5.84072 18.8243C5.9228 20.1172 6.13079 21.5462 7.1303 22.3704C8.01625 23.1 9.26648 23.136 10.4155 23.1371C14.0628 23.1405 17.7112 23.1439 21.3595 23.1461C21.8272 23.1472 22.3152 23.1383 22.7919 23.0865C23.7296 22.9854 24.6234 22.7166 25.226 22.0218C25.8343 21.3214 25.9906 20.3466 26.0827 19.4235C26.3076 17.1839 26.3053 14.923 26.0749 12.6845ZM13.8244 19.1391V12.8598L19.2616 15.9989L13.8244 19.1391Z" fill="black"/>
</svg>
